<svg xmlns="http://www.w3.org/2000/svg" width="600" height="371" fill="none" stroke-linecap="square" stroke-miterlimit="10"><path fill="#fff" d="M0 0h600v371H0V0Z"/><path stroke="#333" stroke-linecap="butt" d="M52.5 332.5h529"/><path stroke="#ccc" stroke-linecap="butt" d="M52.5 242.5h529m-529-90h529m-529-91h529"/><clipPath id="a"><path d="M52.55 61.917h528.9V332.45H52.55V61.917Z"/></clipPath><path d="M277 332H131V137a2 2 0 0 1 2-2h142a2 2 0 0 1 2 2Z" clip-path="url(#a)"/><path fill="#4285f4" d="M277 332H131V137a2 2 0 0 1 2-2h142a2 2 0 0 1 2 2Z" clip-path="url(#a)"/><path d="M503 332H357V88a2 2 0 0 1 2-2h142a2 2 0 0 1 2 2Z" clip-path="url(#a)"/><path fill="#4285f4" d="M503 332H357V88a2 2 0 0 1 2-2h142a2 2 0 0 1 2 2Z" clip-path="url(#a)"/><path stroke="#4285f4" stroke-linecap="round" stroke-linejoin="round" stroke-width="3" d="M185.766 152.136h-1.078v-7.219l-2.188.797v-.984l3.11-1.172h.156v8.578Zm8.797-3.64q0 1.905-.657 2.843-.64.922-2.031.922-1.36 0-2.016-.906-.656-.907-.687-2.72v-1.437q0-1.89.64-2.797.657-.921 2.047-.921 1.375 0 2.032.89.656.875.672 2.719v1.406Zm-1.094-1.485q0-1.375-.39-2-.376-.64-1.22-.64-.828 0-1.218.64-.375.625-.375 1.922v1.734q0 1.375.39 2.047.406.656 1.219.656.797 0 1.188-.625.39-.625.406-1.953v-1.781Zm6.89 1.375q-.328.406-.812.656-.469.234-1.031.234-.735 0-1.282-.359-.547-.36-.843-1.016-.297-.671-.297-1.468 0-.844.312-1.532.328-.687.922-1.046.61-.375 1.406-.375 1.266 0 1.985.953.734.953.734 2.578v.312q0 2.5-.984 3.64-.985 1.142-2.969 1.173h-.219v-.906h.235q1.343-.032 2.062-.704.719-.671.781-2.14Zm-1.672 0q.547 0 1-.328.47-.344.688-.828v-.438q0-1.062-.469-1.734-.469-.672-1.172-.672-.718 0-1.156.547-.422.547-.422 1.453 0 .875.406 1.437.422.563 1.125.563Zm10.11 3.75h-5.594v-.781l2.953-3.282q.656-.75.906-1.203.25-.469.25-.969 0-.671-.406-1.093-.39-.438-1.078-.438-.797 0-1.25.469-.453.453-.453 1.281h-1.078q0-1.187.75-1.906.766-.734 2.031-.734 1.203 0 1.89.625.688.625.688 1.671 0 1.25-1.61 3l-2.28 2.47h4.28v.89Zm1.547-.563q0-.281.156-.468.172-.188.5-.188.344 0 .516.188.172.187.172.468 0 .266-.172.453-.172.172-.516.172-.328 0-.5-.172-.156-.187-.156-.453Zm7.015-3.187q-.328.406-.812.656-.469.234-1.031.234-.735 0-1.282-.359-.547-.36-.843-1.016-.297-.671-.297-1.468 0-.844.312-1.532.328-.687.922-1.046.61-.375 1.406-.375 1.266 0 1.985.953.734.953.734 2.578v.312q0 2.5-.984 3.64-.985 1.142-2.969 1.173h-.219v-.906h.235q1.343-.032 2.062-.704.719-.671.781-2.14Zm-1.672 0q.547 0 1-.328.47-.344.688-.828v-.438q0-1.062-.469-1.734-.469-.672-1.172-.672-.718 0-1.156.547-.422.547-.422 1.453 0 .875.406 1.437.422.563 1.125.563Zm10.11 3.75h-5.594v-.781l2.953-3.282q.656-.75.906-1.203.25-.469.25-.969 0-.671-.406-1.093-.39-.438-1.078-.438-.797 0-1.25.469-.453.453-.453 1.281h-1.078q0-1.187.75-1.906.766-.734 2.031-.734 1.203 0 1.89.625.688.625.688 1.671 0 1.25-1.61 3l-2.28 2.47h4.28v.89Z"/><path fill="#fff" d="M185.766 152.136h-1.078v-7.219l-2.188.797v-.984l3.11-1.172h.156v8.578Zm8.797-3.64q0 1.905-.657 2.843-.64.922-2.031.922-1.36 0-2.016-.906-.656-.907-.687-2.72v-1.437q0-1.89.64-2.797.657-.921 2.047-.921 1.375 0 2.032.89.656.875.672 2.719v1.406Zm-1.094-1.485q0-1.375-.39-2-.376-.64-1.22-.64-.828 0-1.218.64-.375.625-.375 1.922v1.734q0 1.375.39 2.047.406.656 1.219.656.797 0 1.188-.625.39-.625.406-1.953v-1.781Zm6.89 1.375q-.328.406-.812.656-.469.234-1.031.234-.735 0-1.282-.359-.547-.36-.843-1.016-.297-.671-.297-1.468 0-.844.312-1.532.328-.687.922-1.046.61-.375 1.406-.375 1.266 0 1.985.953.734.953.734 2.578v.312q0 2.5-.984 3.64-.985 1.142-2.969 1.173h-.219v-.906h.235q1.343-.032 2.062-.704.719-.671.781-2.14Zm-1.672 0q.547 0 1-.328.47-.344.688-.828v-.438q0-1.062-.469-1.734-.469-.672-1.172-.672-.718 0-1.156.547-.422.547-.422 1.453 0 .875.406 1.437.422.563 1.125.563Zm10.11 3.75h-5.594v-.781l2.953-3.282q.656-.75.906-1.203.25-.469.25-.969 0-.671-.406-1.093-.39-.438-1.078-.438-.797 0-1.25.469-.453.453-.453 1.281h-1.078q0-1.187.75-1.906.766-.734 2.031-.734 1.203 0 1.89.625.688.625.688 1.671 0 1.25-1.61 3l-2.28 2.47h4.28v.89Zm1.547-.563q0-.281.156-.468.172-.188.5-.188.344 0 .516.188.172.187.172.468 0 .266-.172.453-.172.172-.516.172-.328 0-.5-.172-.156-.187-.156-.453Zm7.015-3.187q-.328.406-.812.656-.469.234-1.031.234-.735 0-1.282-.359-.547-.36-.843-1.016-.297-.671-.297-1.468 0-.844.312-1.532.328-.687.922-1.046.61-.375 1.406-.375 1.266 0 1.985.953.734.953.734 2.578v.312q0 2.5-.984 3.64-.985 1.142-2.969 1.173h-.219v-.906h.235q1.343-.032 2.062-.704.719-.671.781-2.14Zm-1.672 0q.547 0 1-.328.47-.344.688-.828v-.438q0-1.062-.469-1.734-.469-.672-1.172-.672-.718 0-1.156.547-.422.547-.422 1.453 0 .875.406 1.437.422.563 1.125.563Zm10.11 3.75h-5.594v-.781l2.953-3.282q.656-.75.906-1.203.25-.469.25-.969 0-.671-.406-1.093-.39-.438-1.078-.438-.797 0-1.25.469-.453.453-.453 1.281h-1.078q0-1.187.75-1.906.766-.734 2.031-.734 1.203 0 1.89.625.688.625.688 1.671 0 1.25-1.61 3l-2.28 2.47h4.28v.89Z"/><path stroke="#4285f4" stroke-linecap="round" stroke-linejoin="round" stroke-width="3" d="M420.266 102.343h-1.079v-7.219l-2.187.797v-.984l3.11-1.172h.156v8.578Zm5.015-4.797h.813q.781-.015 1.219-.406.437-.39.437-1.062 0-1.5-1.5-1.5-.703 0-1.125.406-.406.406-.406 1.062h-1.094q0-1.015.734-1.687.75-.672 1.891-.672 1.203 0 1.89.64.688.641.688 1.782 0 .562-.36 1.078-.359.516-.984.781.704.219 1.079.735.39.515.39 1.265 0 1.14-.75 1.828-.75.672-1.953.672-1.188 0-1.953-.656-.75-.656-.75-1.719h1.094q0 .672.437 1.078.438.407 1.188.407.78 0 1.187-.407.422-.422.422-1.187 0-.734-.453-1.125-.453-.406-1.328-.422h-.813v-.89Zm9.688-3.734v.906h-.203q-1.266.031-2.016.766-.75.719-.875 2.031.688-.766 1.844-.766 1.11 0 1.781.782.672.781.672 2.031 0 1.313-.719 2.11-.719.796-1.937.796-1.22 0-1.985-.937-.75-.953-.75-2.438v-.406q0-2.36 1-3.61t2.985-1.265h.203Zm-1.422 3.844q-.563 0-1.031.328-.47.328-.657.844v.39q0 1.063.47 1.703.483.641 1.187.641.734 0 1.156-.531.422-.547.422-1.422 0-.875-.422-1.406-.422-.547-1.125-.547Zm8.312.937q-.328.406-.812.656-.469.235-1.031.235-.735 0-1.282-.36-.546-.359-.843-1.015-.297-.672-.297-1.469 0-.844.312-1.531.328-.688.922-1.047.61-.375 1.406-.375 1.266 0 1.985.953.734.953.734 2.578v.313q0 2.5-.984 3.64-.985 1.141-2.969 1.172h-.219v-.906h.235q1.343-.031 2.062-.703.719-.672.781-2.14Zm-1.671 0q.546 0 1-.328.468-.344.687-.828v-.438q0-1.062-.469-1.734-.469-.672-1.172-.672-.718 0-1.156.547-.422.547-.422 1.453 0 .875.406 1.438.422.562 1.125.562Z"/><path fill="#fff" d="M420.266 102.343h-1.079v-7.219l-2.187.797v-.984l3.11-1.172h.156v8.578Zm5.015-4.797h.813q.781-.015 1.219-.406.437-.39.437-1.062 0-1.5-1.5-1.5-.703 0-1.125.406-.406.406-.406 1.062h-1.094q0-1.015.734-1.687.75-.672 1.891-.672 1.203 0 1.89.64.688.641.688 1.782 0 .562-.36 1.078-.359.516-.984.781.704.219 1.079.735.39.515.39 1.265 0 1.14-.75 1.828-.75.672-1.953.672-1.188 0-1.953-.656-.75-.656-.75-1.719h1.094q0 .672.437 1.078.438.407 1.188.407.78 0 1.187-.407.422-.422.422-1.187 0-.734-.453-1.125-.453-.406-1.328-.422h-.813v-.89Zm9.688-3.734v.906h-.203q-1.266.031-2.016.766-.75.719-.875 2.031.688-.766 1.844-.766 1.11 0 1.781.782.672.781.672 2.031 0 1.313-.719 2.11-.719.796-1.937.796-1.22 0-1.985-.937-.75-.953-.75-2.438v-.406q0-2.36 1-3.61t2.985-1.265h.203Zm-1.422 3.844q-.563 0-1.031.328-.47.328-.657.844v.39q0 1.063.47 1.703.483.641 1.187.641.734 0 1.156-.531.422-.547.422-1.422 0-.875-.422-1.406-.422-.547-1.125-.547Zm8.312.937q-.328.406-.812.656-.469.235-1.031.235-.735 0-1.282-.36-.546-.359-.843-1.015-.297-.672-.297-1.469 0-.844.312-1.531.328-.688.922-1.047.61-.375 1.406-.375 1.266 0 1.985.953.734.953.734 2.578v.313q0 2.5-.984 3.64-.985 1.141-2.969 1.172h-.219v-.906h.235q1.343-.031 2.062-.703.719-.672.781-2.14Zm-1.671 0q.546 0 1-.328.468-.344.687-.828v-.438q0-1.062-.469-1.734-.469-.672-1.172-.672-.718 0-1.156.547-.422.547-.422 1.453 0 .875.406 1.438.422.562 1.125.562Z"/><path fill="#000" d="M40.05 332.216q0-1.532.313-2.454.312-.937.921-1.437.625-.5 1.563-.5.687 0 1.203.281.531.281.875.813.344.515.531 1.265.188.75.188 2.032 0 1.515-.313 2.437-.297.922-.922 1.438-.609.5-1.562.5-1.235 0-1.953-.891-.844-1.063-.844-3.484Zm1.078 0q0 2.109.5 2.812.5.703 1.219.703.734 0 1.219-.703.5-.703.5-2.812 0-2.125-.5-2.813-.485-.703-1.235-.703-.719 0-1.156.61-.547.78-.547 2.906ZM26.05 244.022l1.11-.094q.124.813.562 1.22.453.405 1.094.405.75 0 1.28-.578.532-.578.532-1.515 0-.907-.515-1.422-.5-.531-1.329-.531-.5 0-.921.234-.407.234-.641.594l-.985-.125.829-4.407h4.28v1H27.91l-.453 2.313q.766-.547 1.61-.547 1.125 0 1.89.781.782.782.782 2.016 0 1.156-.672 2.016-.828 1.03-2.25 1.03-1.172 0-1.922-.655-.735-.657-.844-1.735Zm7-1.984q0-1.531.313-2.453.312-.938.921-1.438.625-.5 1.563-.5.687 0 1.203.281.531.282.875.813.344.516.531 1.266.188.75.188 2.03 0 1.516-.313 2.438-.297.922-.922 1.438-.609.5-1.562.5-1.235 0-1.953-.89-.844-1.063-.844-3.485Zm1.078 0q0 2.11.5 2.812.5.703 1.219.703.734 0 1.219-.703.5-.703.5-2.812 0-2.125-.5-2.813-.485-.703-1.235-.703-.719 0-1.156.61-.547.78-.547 2.906Zm5.922 0q0-1.531.313-2.453.312-.938.921-1.438.625-.5 1.563-.5.687 0 1.203.281.531.282.875.813.344.516.531 1.266.188.75.188 2.03 0 1.516-.313 2.438-.297.922-.922 1.438-.609.5-1.562.5-1.235 0-1.953-.89-.844-1.063-.844-3.485Zm1.078 0q0 2.11.5 2.812.5.703 1.219.703.734 0 1.219-.703.5-.703.5-2.812 0-2.125-.5-2.813-.485-.703-1.235-.703-.719 0-1.156.61-.547.78-.547 2.906Zm-18.109-85.944h-1.047v-6.718q-.39.36-1.016.734-.61.36-1.093.531v-1.015q.875-.422 1.53-1 .673-.594.954-1.157h.672v8.625Zm3.031-4.234q0-1.531.313-2.453.312-.938.921-1.438.625-.5 1.563-.5.687 0 1.203.282.531.28.875.812.344.516.531 1.266.188.75.188 2.031 0 1.516-.313 2.438-.297.921-.922 1.437-.609.5-1.562.5-1.235 0-1.953-.89-.844-1.063-.844-3.485Zm1.078 0q0 2.11.5 2.813.5.703 1.219.703.734 0 1.219-.703.5-.704.5-2.813 0-2.125-.5-2.812-.485-.704-1.235-.704-.718 0-1.156.61-.547.781-.547 2.906Zm5.922 0q0-1.531.313-2.453.312-.938.921-1.438.625-.5 1.563-.5.687 0 1.203.282.531.28.875.812.344.516.531 1.266.188.75.188 2.031 0 1.516-.313 2.438-.297.921-.922 1.437-.609.5-1.562.5-1.235 0-1.953-.89-.844-1.063-.844-3.485Zm1.078 0q0 2.11.5 2.813.5.703 1.219.703.734 0 1.219-.703.5-.704.5-2.813 0-2.125-.5-2.812-.485-.704-1.235-.704-.719 0-1.156.61-.547.781-.547 2.906Zm5.922 0q0-1.531.313-2.453.312-.938.921-1.438.625-.5 1.563-.5.687 0 1.203.282.531.28.875.812.344.516.531 1.266.188.75.188 2.031 0 1.516-.313 2.438-.297.921-.922 1.437-.609.5-1.562.5-1.235 0-1.953-.89-.844-1.063-.844-3.485Zm1.078 0q0 2.11.5 2.813.5.703 1.219.703.734 0 1.219-.703.5-.704.5-2.813 0-2.125-.5-2.812-.485-.704-1.235-.704-.719 0-1.156.61-.547.781-.547 2.906ZM23.019 65.917h-1.047v-6.72q-.39.36-1.016.735-.61.36-1.093.532v-1.016q.875-.422 1.53-1 .673-.594.954-1.156h.672v8.625Zm3.031-2.25 1.11-.094q.124.812.562 1.219.453.406 1.094.406.75 0 1.28-.578.532-.578.532-1.516 0-.906-.515-1.422-.5-.531-1.329-.531-.5 0-.921.234-.407.235-.641.594l-.985-.125.829-4.406h4.28v1H27.91l-.453 2.312q.766-.546 1.61-.546 1.125 0 1.89.78.782.782.782 2.016 0 1.157-.672 2.016-.828 1.031-2.25 1.031-1.172 0-1.922-.656-.735-.656-.844-1.734Zm7-1.985q0-1.531.313-2.453.312-.937.921-1.437.625-.5 1.563-.5.687 0 1.203.28.531.282.875.813.344.516.531 1.266.188.75.188 2.031 0 1.516-.313 2.438-.297.922-.922 1.437-.609.5-1.562.5-1.235 0-1.953-.89-.844-1.063-.844-3.485Zm1.078 0q0 2.11.5 2.813.5.703 1.219.703.734 0 1.219-.703.5-.703.5-2.813 0-2.125-.5-2.812-.485-.703-1.235-.703-.719 0-1.156.609-.547.781-.547 2.906Zm5.922 0q0-1.531.313-2.453.312-.937.921-1.437.625-.5 1.563-.5.687 0 1.203.28.531.282.875.813.344.516.531 1.266.188.75.188 2.031 0 1.516-.313 2.438-.297.922-.922 1.437-.609.5-1.562.5-1.235 0-1.953-.89-.844-1.063-.844-3.485Zm1.078 0q0 2.11.5 2.813.5.703 1.219.703.734 0 1.219-.703.5-.703.5-2.813 0-2.125-.5-2.812-.485-.703-1.235-.703-.719 0-1.156.609-.547.781-.547 2.906ZM177.343 349.45v-8.594h1.14v7.578h4.235v1.016h-5.375Zm6.531-3.11q0-1.734.953-2.562.797-.687 1.954-.687 1.28 0 2.093.843.828.828.828 2.313 0 1.203-.359 1.89-.36.688-1.062 1.079-.688.375-1.5.375-1.297 0-2.11-.829-.797-.843-.797-2.421Zm1.078 0q0 1.188.516 1.782.531.594 1.313.594.796 0 1.312-.594t.516-1.813q0-1.156-.532-1.75-.515-.593-1.296-.593-.782 0-1.313.593-.516.578-.516 1.782Zm10.375.829 1.032.14q-.172 1.063-.875 1.672-.703.61-1.72.61-1.28 0-2.062-.829-.765-.843-.765-2.406 0-1 .328-1.75.344-.765 1.016-1.14.687-.375 1.5-.375 1 0 1.64.515.656.5.844 1.453l-1.031.157q-.14-.625-.516-.938-.375-.328-.906-.328-.797 0-1.297.578-.5.563-.5 1.797 0 1.266.484 1.828.485.563 1.25.563.625 0 1.032-.375.421-.375.546-1.172Zm1.938 2.281v-8.594h1.062v4.906l2.485-2.53h1.375l-2.39 2.296 2.624 3.922h-1.297l-2.062-3.188-.735.72v2.468h-1.062Zm10.031 0v-.781q-.594.922-1.734.922-.75 0-1.375-.407-.625-.422-.969-1.156t-.344-1.687q0-.922.313-1.688.312-.766.937-1.156.625-.406 1.391-.406.562 0 1 .234.437.234.719.61v-3.079h1.047v8.594h-.985Zm-3.328-3.11q0 1.204.5 1.798.5.578 1.188.578.687 0 1.171-.563.485-.562.485-1.719 0-1.28-.5-1.875-.485-.593-1.203-.593-.703 0-1.172.578-.469.562-.469 1.797Zm5.906 0q0-1.734.953-2.562.797-.687 1.954-.687 1.28 0 2.093.843.828.828.828 2.313 0 1.203-.359 1.89-.36.688-1.062 1.079-.688.375-1.5.375-1.297 0-2.11-.829-.797-.843-.797-2.421Zm1.078 0q0 1.188.516 1.782.531.594 1.313.594.796 0 1.312-.594t.516-1.813q0-1.156-.532-1.75-.515-.593-1.296-.593-.782 0-1.313.593-.516.578-.516 1.782Zm7.454 3.11-1.907-6.219h1.094l.984 3.594.375 1.328q.032-.094.329-1.281l.984-3.64h1.078l.938 3.609.312 1.187.36-1.203 1.062-3.594h1.031l-1.953 6.219H222l-.984-3.734-.25-1.047-1.25 4.781h-1.11Zm7.859 0v-6.219h.937v.875q.688-1.015 1.985-1.015.562 0 1.031.203.484.203.719.531.234.328.328.766.047.296.047 1.03v3.829h-1.047v-3.781q0-.656-.125-.969-.125-.313-.438-.5-.312-.203-.734-.203-.672 0-1.172.437-.484.422-.484 1.61v3.406h-1.047Zm182.205 0v-8.594h3.812q1.156 0 1.75.235.594.234.953.828.36.578.36 1.281 0 .922-.594 1.547-.594.625-1.828.797.453.219.687.422.5.453.938 1.14l1.5 2.344h-1.438l-1.125-1.781q-.5-.781-.828-1.188-.313-.406-.578-.562-.25-.172-.516-.25-.187-.031-.625-.031h-1.328v3.812h-1.14Zm1.14-4.797h2.453q.766 0 1.203-.156.453-.172.672-.516.235-.36.235-.781 0-.61-.454-1-.437-.39-1.39-.39h-2.719v2.843Zm11.969 2.797 1.094.125q-.25.953-.954 1.484-.703.532-1.78.532-1.36 0-2.173-.844-.797-.844-.797-2.36 0-1.562.813-2.421.812-.875 2.094-.875 1.25 0 2.03.843.798.844.798 2.391v.281h-4.64q.062 1.031.577 1.578.516.532 1.297.532.578 0 .985-.297.421-.313.656-.969Zm-3.453-1.703h3.468q-.062-.797-.39-1.188-.516-.609-1.313-.609-.734 0-1.234.484-.484.485-.531 1.313Zm6 4.219 1.03.156q.063.469.36.687.39.297 1.063.297.734 0 1.125-.297.406-.297.547-.812.093-.328.078-1.36-.688.813-1.719.813-1.281 0-1.984-.922-.703-.937-.703-2.219 0-.89.312-1.64.328-.766.938-1.172.609-.406 1.437-.406 1.11 0 1.828.89v-.75h.969v5.375q0 1.453-.297 2.063-.297.61-.937.953-.641.36-1.579.36-1.109 0-1.796-.5-.688-.5-.672-1.516Zm.875-3.735q0 1.219.484 1.781.484.563 1.219.563.734 0 1.219-.563.5-.562.5-1.75 0-1.14-.516-1.718-.5-.578-1.219-.578-.703 0-1.203.578-.484.562-.484 1.687Zm10.406 3.219v-.922q-.734 1.063-1.984 1.063-.547 0-1.032-.204-.468-.218-.703-.53-.234-.329-.328-.798-.062-.297-.062-.984v-3.844h1.062v3.453q0 .813.063 1.11.093.406.406.656.328.234.812.234.469 0 .875-.234.422-.25.594-.672.188-.422.188-1.219v-3.328h1.046v6.219h-.937Zm2.89 0v-8.594h1.063v8.594h-1.062Zm7.094-.766q-.593.5-1.14.703-.532.204-1.157.204-1.03 0-1.578-.5-.547-.5-.547-1.282 0-.453.204-.828.203-.39.546-.61.344-.233.766-.343.297-.094.938-.172 1.265-.14 1.875-.36v-.265q0-.656-.297-.922-.407-.343-1.203-.343-.735 0-1.094.265-.36.25-.531.906l-1.032-.14q.14-.656.469-1.063.328-.406.938-.625.609-.218 1.406-.218.797 0 1.297.187.5.188.734.469.234.281.328.719.047.265.047.968v1.407q0 1.468.063 1.859.078.39.28.75h-1.109q-.156-.328-.203-.766Zm-.093-2.359q-.579.234-1.72.406-.655.094-.921.219-.266.11-.422.328-.14.219-.14.5 0 .422.312.703.328.281.937.281.61 0 1.079-.265.484-.266.703-.735.172-.359.172-1.046v-.391Zm3.015 3.125v-6.219h.953v.938q.36-.656.657-.86.312-.218.687-.218.531 0 1.078.328l-.36.984q-.39-.234-.765-.234-.36 0-.64.219-.266.203-.375.578-.188.562-.188 1.218v3.266h-1.047Z"/><path fill="#757575" d="M20.034 37.55V23.238h2.86l3.375 10.124q.469 1.422.687 2.125.25-.78.766-2.296l3.422-9.954h2.547V37.55h-1.813V25.566L27.706 37.55h-1.703l-4.14-12.187V37.55h-1.829Zm16.188-5.188q0-2.875 1.594-4.265 1.343-1.156 3.265-1.156 2.14 0 3.485 1.406 1.359 1.406 1.359 3.875 0 2-.594 3.156-.594 1.14-1.75 1.781-1.14.625-2.5.625-2.187 0-3.531-1.39-1.328-1.407-1.328-4.032Zm1.797 0q0 2 .86 2.985.874.984 2.202.984 1.313 0 2.172-.984.875-1 .875-3.047 0-1.922-.875-2.906-.875-1-2.172-1-1.328 0-2.203 1-.86.984-.86 2.968Zm13.687 3.61.25 1.562q-.734.157-1.328.157-.953 0-1.484-.297-.516-.313-.735-.797-.218-.5-.218-2.078V28.55h-1.282v-1.375h1.282v-2.563l1.75-1.062v3.625h1.765v1.375h-1.765v6.062q0 .75.093.97.094.202.297.343.219.125.61.125.28 0 .765-.078Zm2.172-10.719v-2.015h1.766v2.015h-1.766Zm0 12.297V27.175h1.766V37.55h-1.766Zm3.344-5.188q0-2.875 1.594-4.265 1.343-1.156 3.265-1.156 2.14 0 3.485 1.406 1.359 1.406 1.359 3.875 0 2-.594 3.156-.594 1.14-1.75 1.781-1.14.625-2.5.625-2.187 0-3.531-1.39-1.328-1.407-1.328-4.032Zm1.797 0q0 2 .86 2.985.874.984 2.202.984 1.313 0 2.172-.984.875-1 .875-3.047 0-1.922-.875-2.906-.875-1-2.172-1-1.328 0-2.203 1-.86.984-.86 2.968Zm9.843 5.188V27.175h1.594v1.484q1.14-1.718 3.297-1.718.938 0 1.719.343.797.329 1.187.875.391.547.547 1.297.094.5.094 1.719v6.375h-1.766v-6.312q0-1.079-.203-1.61-.203-.531-.734-.844-.516-.312-1.219-.312-1.125 0-1.937.719-.813.703-.813 2.687v5.672h-1.766Zm10.172 0V23.238h2.86l3.375 10.124q.468 1.422.687 2.125.25-.78.766-2.296l3.422-9.954h2.547V37.55h-1.813V25.566L86.706 37.55h-1.703l-4.14-12.187V37.55h-1.829Zm23.61-1.281q-.985.828-1.89 1.172-.907.343-1.938.343-1.704 0-2.625-.828-.922-.844-.922-2.14 0-.766.343-1.391.36-.625.922-1 .563-.39 1.266-.594.516-.125 1.563-.265 2.124-.25 3.124-.594.016-.36.016-.469 0-1.062-.5-1.515-.672-.594-2-.594-1.25 0-1.844.437-.578.438-.859 1.547l-1.719-.234q.235-1.11.766-1.781.531-.688 1.547-1.047 1.015-.375 2.36-.375 1.327 0 2.155.312.828.313 1.22.797.39.469.546 1.188.094.453.094 1.625v2.343q0 2.453.11 3.11.108.64.452 1.234h-1.844q-.265-.547-.343-1.281Zm-.157-3.922q-.953.39-2.874.656-1.079.156-1.532.36-.437.187-.687.562-.25.375-.25.844 0 .703.531 1.172.531.468 1.563.468 1.015 0 1.796-.437.797-.453 1.172-1.219.281-.61.281-1.766v-.64Zm4.36 5.203V27.175h1.578v1.578q.61-1.11 1.125-1.453.516-.36 1.125-.36.89 0 1.813.563l-.61 1.64q-.64-.39-1.281-.39-.578 0-1.047.36-.453.343-.656.953-.282.937-.282 2.046v5.438h-1.765Zm7.031 0V23.238h1.766v8.156l4.156-4.219h2.266l-3.954 3.844 4.36 6.531H120.3l-3.422-5.297-1.234 1.188v4.109h-1.766Zm19.344 4.203q-1.453-1.828-2.453-4.281-1-2.469-1-5.11 0-2.328.75-4.453.875-2.468 2.703-4.921h1.266q-1.188 2.03-1.563 2.906-.594 1.344-.938 2.812-.421 1.828-.421 3.672 0 4.688 2.922 9.375h-1.266Zm3.64-4.203V23.238h1.766v5.125q1.235-1.422 3.11-1.422 1.14 0 1.984.453.86.453 1.219 1.265.375.797.375 2.313v6.578h-1.75v-6.578q0-1.313-.578-1.906-.579-.61-1.61-.61-.781 0-1.484.407-.688.406-.985 1.109-.28.687-.28 1.906v5.672h-1.766Zm10.016-12.297v-2.015h1.766v2.015h-1.766Zm0 12.297V27.175h1.766V37.55h-1.766Zm3.672.86 1.703.25q.11.796.594 1.156.656.484 1.797.484 1.219 0 1.875-.484.672-.485.906-1.36.14-.547.125-2.265-1.156 1.359-2.875 1.359-2.14 0-3.313-1.547-1.171-1.547-1.171-3.703 0-1.484.53-2.734.548-1.25 1.563-1.938 1.032-.687 2.407-.687 1.828 0 3.03 1.484v-1.25h1.61v8.969q0 2.422-.5 3.422-.484 1.015-1.562 1.593-1.063.594-2.625.594-1.844 0-3-.828-1.14-.828-1.094-2.516Zm1.453-6.235q0 2.047.813 2.984.812.938 2.03.938 1.204 0 2.017-.938.828-.937.828-2.922 0-1.906-.844-2.875-.844-.968-2.031-.968-1.172 0-2 .953-.813.953-.813 2.828Zm9.86 5.375V23.238h1.765v5.125q1.235-1.422 3.11-1.422 1.14 0 1.984.453.86.453 1.219 1.265.375.797.375 2.313v6.578h-1.75v-6.578q0-1.313-.578-1.906-.579-.61-1.61-.61-.781 0-1.484.407-.688.406-.985 1.109-.28.687-.28 1.906v5.672h-1.766Zm17.109-3.344 1.812.235q-.421 1.578-1.593 2.468-1.157.875-2.97.875-2.265 0-3.608-1.39-1.329-1.407-1.329-3.938 0-2.625 1.344-4.062 1.344-1.453 3.5-1.453 2.078 0 3.39 1.422 1.329 1.406 1.329 3.984 0 .156-.016.469h-7.734q.094 1.703.969 2.609.875.906 2.172.906.968 0 1.64-.5.688-.515 1.094-1.625Zm-5.781-2.844h5.797q-.11-1.296-.657-1.953-.843-1.015-2.187-1.015-1.203 0-2.031.812-.829.797-.922 2.157Zm9.656 6.188V27.175h1.578v1.578q.61-1.11 1.125-1.453.516-.36 1.125-.36.89 0 1.813.563l-.61 1.64q-.64-.39-1.281-.39-.578 0-1.047.36-.453.343-.656.953-.281.937-.281 2.046v5.438h-1.766Zm13.031-12.297v-2.015h1.766v2.015h-1.766Zm0 12.297V27.175h1.766V37.55h-1.766Zm3.281-3.094 1.75-.281q.141 1.047.813 1.61.672.546 1.875.546 1.203 0 1.781-.484.594-.5.594-1.156 0-.594-.516-.938-.36-.234-1.797-.594-1.937-.5-2.687-.843-.734-.36-1.125-.985-.39-.64-.39-1.406 0-.688.312-1.281.328-.594.875-.985.406-.296 1.11-.5.718-.218 1.53-.218 1.22 0 2.141.359.922.344 1.36.953.437.594.609 1.594l-1.719.234q-.125-.797-.688-1.234-.562-.453-1.578-.453-1.218 0-1.734.406-.516.39-.516.922 0 .344.22.625.202.281.671.469.266.093 1.547.437 1.875.5 2.61.828.734.313 1.156.922.421.594.421 1.5 0 .875-.515 1.656-.516.782-1.485 1.203-.968.422-2.187.422-2.016 0-3.078-.843-1.063-.844-1.36-2.485Zm18.329 3.094h-1.625V23.238h1.75v5.109q1.125-1.406 2.843-1.406.953 0 1.813.39t1.406 1.094q.547.688.86 1.672.312.984.312 2.11 0 2.671-1.313 4.124-1.312 1.453-3.156 1.453t-2.89-1.53v1.296Zm-.016-5.266q0 1.86.5 2.703.844 1.344 2.25 1.344 1.156 0 1.984-1 .844-1 .844-2.984 0-2.031-.813-2.985-.796-.968-1.937-.968-1.156 0-2 1-.828 1-.828 2.89Zm16.5 1.922 1.812.235q-.421 1.578-1.593 2.468-1.157.875-2.97.875-2.265 0-3.608-1.39-1.329-1.407-1.329-3.938 0-2.625 1.344-4.062 1.344-1.453 3.5-1.453 2.078 0 3.39 1.422 1.329 1.406 1.329 3.984 0 .156-.016.469h-7.734q.094 1.703.969 2.609.875.906 2.172.906.968 0 1.64-.5.688-.515 1.094-1.625Zm-5.781-2.844h5.797q-.11-1.296-.657-1.953-.843-1.015-2.187-1.015-1.203 0-2.031.812-.829.797-.922 2.157Zm13.515 4.61.25 1.562q-.734.157-1.328.157-.953 0-1.484-.297-.516-.313-.735-.797-.218-.5-.218-2.078V28.55h-1.282v-1.375h1.282v-2.563l1.75-1.062v3.625h1.765v1.375h-1.765v6.062q0 .75.093.97.094.202.297.343.219.125.61.125.28 0 .765-.078Zm6 0 .25 1.562q-.734.157-1.328.157-.953 0-1.484-.297-.516-.313-.735-.797-.218-.5-.218-2.078V28.55h-1.282v-1.375h1.282v-2.563l1.75-1.062v3.625h1.765v1.375h-1.765v6.062q0 .75.093.97.094.202.297.343.219.125.61.125.28 0 .765-.078Zm9.266-1.766 1.812.235q-.421 1.578-1.593 2.468-1.157.875-2.97.875-2.265 0-3.608-1.39-1.329-1.407-1.329-3.938 0-2.625 1.344-4.062 1.344-1.453 3.5-1.453 2.078 0 3.39 1.422 1.329 1.406 1.329 3.984 0 .156-.016.469h-7.734q.094 1.703.969 2.609.875.906 2.172.906.968 0 1.64-.5.688-.515 1.094-1.625Zm-5.781-2.844h5.797q-.11-1.296-.657-1.953-.844-1.015-2.187-1.015-1.203 0-2.031.812-.829.797-.922 2.157Zm9.656 6.188V27.175h1.578v1.578q.61-1.11 1.125-1.453.516-.36 1.125-.36.89 0 1.813.563l-.61 1.64q-.64-.39-1.281-.39-.578 0-1.047.36-.453.343-.656.953-.281.937-.281 2.046v5.438h-1.766Zm8.172 4.203h-1.25q2.906-4.687 2.906-9.375 0-1.844-.406-3.64-.344-1.47-.938-2.813-.375-.89-1.562-2.938h1.25q1.844 2.454 2.719 4.922.75 2.125.75 4.453 0 2.641-1.016 5.11-1 2.453-2.453 4.281Z"/></svg>