<svg xmlns="http://www.w3.org/2000/svg" width="600" height="371" fill="none" stroke-linecap="square" stroke-miterlimit="10"><path fill="#fff" d="M0 0h600v371H0V0Z"/><path stroke="#333" stroke-linecap="butt" d="M59.5 332.5h522"/><path stroke="#ccc" stroke-linecap="butt" d="M59.5 242.5h522m-522-90h522m-522-91h522"/><clipPath id="a"><path d="M59.55 61.917h521.9V332.45H59.55V61.917Z"/></clipPath><path d="M281 332H137v-10a2 2 0 0 1 2-2h140a2 2 0 0 1 2 2Z" clip-path="url(#a)"/><path fill="#4285f4" d="M281 332H137v-10a2 2 0 0 1 2-2h140a2 2 0 0 1 2 2Z" clip-path="url(#a)"/><path d="M504 332H360V68a2 2 0 0 1 2-2h140a2 2 0 0 1 2 2Z" clip-path="url(#a)"/><path fill="#4285f4" d="M504 332H360V68a2 2 0 0 1 2-2h140a2 2 0 0 1 2 2Z" clip-path="url(#a)"/><path stroke="#fff" stroke-linecap="round" stroke-linejoin="round" stroke-width="3" d="M201.297 305h-5.594v-.78l2.953-3.282q.656-.75.906-1.203.25-.468.25-.968 0-.672-.406-1.094-.39-.438-1.078-.438-.797 0-1.25.47-.453.452-.453 1.28h-1.078q0-1.187.75-1.906.766-.734 2.031-.734 1.203 0 1.89.625.688.625.688 1.672 0 1.25-1.61 3l-2.28 2.468h4.28v.89Zm6.922-7.92-3.531 7.92h-1.141l3.516-7.64h-4.61v-.891h5.766v.61Zm5.75-.61v.906h-.203q-1.266.031-2.016.766-.75.718-.875 2.03.688-.765 1.844-.765 1.11 0 1.781.781.672.782.672 2.032 0 1.312-.719 2.11-.719.796-1.937.796-1.22 0-1.985-.938-.75-.953-.75-2.437v-.406q0-2.36 1-3.61t2.985-1.265h.203Zm-1.422 3.843q-.563 0-1.031.329-.47.328-.657.843v.39q0 1.063.47 1.704.483.64 1.187.64.734 0 1.156-.53.422-.547.422-1.422 0-.875-.422-1.407-.422-.547-1.125-.547Zm7.719 4.688h-1.078v-7.219l-2.188.797v-.984l3.11-1.172h.156V305Z"/><path fill="#4285f4" d="M201.297 305h-5.594v-.78l2.953-3.282q.656-.75.906-1.203.25-.468.25-.968 0-.672-.406-1.094-.39-.438-1.078-.438-.797 0-1.25.47-.453.452-.453 1.28h-1.078q0-1.187.75-1.906.766-.734 2.031-.734 1.203 0 1.89.625.688.625.688 1.672 0 1.25-1.61 3l-2.28 2.468h4.28v.89Zm6.922-7.92-3.531 7.92h-1.141l3.516-7.64h-4.61v-.891h5.766v.61Zm5.75-.61v.906h-.203q-1.266.031-2.016.766-.75.718-.875 2.03.688-.765 1.844-.765 1.11 0 1.781.781.672.782.672 2.032 0 1.312-.719 2.11-.719.796-1.937.796-1.22 0-1.985-.938-.75-.953-.75-2.437v-.406q0-2.36 1-3.61t2.985-1.265h.203Zm-1.422 3.843q-.563 0-1.031.329-.47.328-.657.843v.39q0 1.063.47 1.704.483.64 1.187.64.734 0 1.156-.53.422-.547.422-1.422 0-.875-.422-1.407-.422-.547-1.125-.547Zm7.719 4.688h-1.078v-7.219l-2.188.797v-.984l3.11-1.172h.156V305Z"/><path stroke="#4285f4" stroke-linecap="round" stroke-linejoin="round" stroke-width="3" d="m415.703 78.827.438-4.25h4.375v1h-3.454l-.265 2.328q.64-.375 1.437-.375 1.157 0 1.844.781.688.766.688 2.079 0 1.312-.72 2.078-.702.765-1.983.765-1.125 0-1.844-.625-.719-.64-.813-1.75h1.016q.11.735.531 1.11.422.375 1.11.375.75 0 1.187-.516.438-.516.438-1.422 0-.86-.47-1.375-.468-.515-1.25-.515-.702 0-1.109.296l-.28.235-.876-.219Zm10.656.531q-.328.407-.812.657-.469.234-1.031.234-.735 0-1.282-.36-.546-.359-.843-1.015-.297-.672-.297-1.469 0-.844.312-1.531.328-.688.922-1.047.61-.375 1.406-.375 1.266 0 1.985.953.734.953.734 2.578v.313q0 2.5-.984 3.64-.985 1.141-2.969 1.172h-.219v-.906h.235q1.343-.031 2.062-.703.719-.672.781-2.14Zm-1.671 0q.546 0 1-.328.468-.344.687-.828v-.437q0-1.063-.469-1.735-.469-.672-1.172-.672-.718 0-1.156.547-.422.547-.422 1.453 0 .875.406 1.438.422.562 1.125.562Zm9.875.11q0 1.906-.657 2.843-.64.922-2.031.922-1.36 0-2.016-.906-.656-.906-.687-2.719v-1.437q0-1.89.64-2.797.657-.922 2.047-.922 1.375 0 2.032.89.656.876.671 2.72v1.406Zm-1.094-1.485q0-1.375-.39-2-.376-.64-1.22-.64-.828 0-1.218.64-.375.625-.375 1.922v1.735q0 1.375.39 2.046.406.657 1.219.657.797 0 1.188-.625.39-.625.406-1.953v-1.782Zm8.328 5.125h-5.594v-.78l2.953-3.282q.656-.75.906-1.203.25-.47.25-.97 0-.67-.406-1.093-.39-.437-1.078-.437-.797 0-1.25.468-.453.454-.453 1.282h-1.078q0-1.188.75-1.907.765-.734 2.031-.734 1.203 0 1.89.625.688.625.688 1.672 0 1.25-1.61 3l-2.28 2.469h4.28v.89Zm5.672-8.53v.905h-.203q-1.266.032-2.016.766-.75.719-.875 2.031.688-.765 1.844-.765 1.11 0 1.781.78.672.782.672 2.032 0 1.313-.719 2.11-.719.796-1.937.796-1.22 0-1.985-.937-.75-.953-.75-2.438v-.406q0-2.36 1-3.61t2.985-1.265h.203Zm-1.422 3.843q-.563 0-1.031.328-.47.328-.657.844v.39q0 1.063.47 1.703.483.641 1.187.641.734 0 1.156-.531.422-.547.422-1.422 0-.875-.422-1.406-.422-.547-1.125-.547Z"/><path fill="#fff" d="m415.703 78.827.438-4.25h4.375v1h-3.454l-.265 2.328q.64-.375 1.437-.375 1.157 0 1.844.781.688.766.688 2.079 0 1.312-.72 2.078-.702.765-1.983.765-1.125 0-1.844-.625-.719-.64-.813-1.75h1.016q.11.735.531 1.11.422.375 1.11.375.75 0 1.187-.516.438-.516.438-1.422 0-.86-.47-1.375-.468-.515-1.25-.515-.702 0-1.109.296l-.28.235-.876-.219Zm10.656.531q-.328.407-.812.657-.469.234-1.031.234-.735 0-1.282-.36-.546-.359-.843-1.015-.297-.672-.297-1.469 0-.844.312-1.531.328-.688.922-1.047.61-.375 1.406-.375 1.266 0 1.985.953.734.953.734 2.578v.313q0 2.5-.984 3.64-.985 1.141-2.969 1.172h-.219v-.906h.235q1.343-.031 2.062-.703.719-.672.781-2.14Zm-1.671 0q.546 0 1-.328.468-.344.687-.828v-.437q0-1.063-.469-1.735-.469-.672-1.172-.672-.718 0-1.156.547-.422.547-.422 1.453 0 .875.406 1.438.422.562 1.125.562Zm9.875.11q0 1.906-.657 2.843-.64.922-2.031.922-1.36 0-2.016-.906-.656-.906-.687-2.719v-1.437q0-1.89.64-2.797.657-.922 2.047-.922 1.375 0 2.032.89.656.876.671 2.72v1.406Zm-1.094-1.485q0-1.375-.39-2-.376-.64-1.22-.64-.828 0-1.218.64-.375.625-.375 1.922v1.735q0 1.375.39 2.046.406.657 1.219.657.797 0 1.188-.625.39-.625.406-1.953v-1.782Zm8.328 5.125h-5.594v-.78l2.953-3.282q.656-.75.906-1.203.25-.47.25-.97 0-.67-.406-1.093-.39-.437-1.078-.437-.797 0-1.25.468-.453.454-.453 1.282h-1.078q0-1.188.75-1.907.765-.734 2.031-.734 1.203 0 1.89.625.688.625.688 1.672 0 1.25-1.61 3l-2.28 2.469h4.28v.89Zm5.672-8.53v.905h-.203q-1.266.032-2.016.766-.75.719-.875 2.031.688-.765 1.844-.765 1.11 0 1.781.78.672.782.672 2.032 0 1.313-.719 2.11-.719.796-1.937.796-1.22 0-1.985-.937-.75-.953-.75-2.438v-.406q0-2.36 1-3.61t2.985-1.265h.203Zm-1.422 3.843q-.563 0-1.031.328-.47.328-.657.844v.39q0 1.063.47 1.703.483.641 1.187.641.734 0 1.156-.531.422-.547.422-1.422 0-.875-.422-1.406-.422-.547-1.125-.547Z"/><path fill="#000" d="M47.05 332.216q0-1.532.313-2.454.312-.937.921-1.437.625-.5 1.563-.5.687 0 1.203.281.531.281.875.813.344.515.531 1.265.188.75.188 2.032 0 1.515-.313 2.437-.297.922-.922 1.438-.609.5-1.562.5-1.235 0-1.953-.891-.844-1.063-.844-3.484Zm1.078 0q0 2.109.5 2.812.5.703 1.219.703.734 0 1.219-.703.5-.703.5-2.812 0-2.125-.5-2.813-.485-.703-1.235-.703-.719 0-1.156.61-.547.78-.547 2.906Zm-23.531-86.959v1.015h-5.688q0-.375.125-.734.22-.578.688-1.14.484-.563 1.39-1.298 1.407-1.156 1.891-1.828.5-.672.5-1.265 0-.625-.453-1.047-.453-.438-1.172-.438-.765 0-1.219.453-.453.453-.468 1.266l-1.078-.11q.109-1.218.828-1.843.734-.64 1.968-.64 1.235 0 1.954.687.718.687.718 1.703 0 .515-.218 1.015-.204.485-.704 1.047-.484.547-1.609 1.5-.953.797-1.234 1.094-.266.281-.438.563h4.219Zm1.453-3.22q0-1.53.313-2.452.312-.938.921-1.438.625-.5 1.563-.5.687 0 1.203.281.531.282.875.813.344.516.531 1.266.188.75.188 2.03 0 1.516-.313 2.438-.297.922-.922 1.438-.609.5-1.562.5-1.235 0-1.953-.89-.844-1.063-.844-3.485Zm1.078 0q0 2.11.5 2.813.5.703 1.219.703.734 0 1.219-.703.5-.703.5-2.812 0-2.125-.5-2.813-.485-.703-1.235-.703-.718 0-1.156.61-.547.78-.547 2.906Zm5.922 0q0-1.53.313-2.452.312-.938.921-1.438.625-.5 1.563-.5.687 0 1.203.281.531.282.875.813.344.516.531 1.266.188.75.188 2.03 0 1.516-.313 2.438-.297.922-.922 1.438-.609.5-1.562.5-1.235 0-1.953-.89-.844-1.063-.844-3.485Zm1.078 0q0 2.11.5 2.813.5.703 1.219.703.734 0 1.219-.703.5-.703.5-2.812 0-2.125-.5-2.813-.485-.703-1.235-.703-.719 0-1.156.61-.547.78-.547 2.906Zm5.922 0q0-1.53.313-2.452.312-.938.921-1.438.625-.5 1.563-.5.687 0 1.203.281.531.282.875.813.344.516.531 1.266.188.75.188 2.03 0 1.516-.313 2.438-.297.922-.922 1.438-.609.5-1.562.5-1.235 0-1.953-.89-.844-1.063-.844-3.485Zm1.078 0q0 2.11.5 2.813.5.703 1.219.703.734 0 1.219-.703.5-.703.5-2.812 0-2.125-.5-2.813-.485-.703-1.235-.703-.719 0-1.156.61-.547.78-.547 2.906Zm5.922 0q0-1.53.313-2.452.312-.938.921-1.438.625-.5 1.563-.5.687 0 1.203.281.531.282.875.813.344.516.531 1.266.188.75.188 2.03 0 1.516-.313 2.438-.297.922-.922 1.438-.609.5-1.562.5-1.235 0-1.953-.89-.844-1.063-.844-3.485Zm1.078 0q0 2.11.5 2.813.5.703 1.219.703.734 0 1.219-.703.5-.703.5-2.812 0-2.125-.5-2.813-.485-.703-1.235-.703-.719 0-1.156.61-.547.78-.547 2.906Zm-25.703-85.943v-2.062h-3.719v-.969l3.922-5.562h.86v5.562h1.156v.969h-1.156v2.062h-1.063Zm0-3.03v-3.86l-2.688 3.86h2.688Zm3.625-1.204q0-1.531.313-2.453.312-.938.921-1.438.625-.5 1.563-.5.687 0 1.203.282.531.28.875.812.344.516.531 1.266.188.75.188 2.031 0 1.516-.313 2.438-.297.921-.922 1.437-.609.5-1.562.5-1.235 0-1.953-.89-.844-1.063-.844-3.485Zm1.078 0q0 2.11.5 2.813.5.703 1.219.703.734 0 1.219-.703.5-.704.5-2.813 0-2.125-.5-2.812-.485-.704-1.235-.704-.718 0-1.156.61-.547.781-.547 2.906Zm5.922 0q0-1.531.313-2.453.312-.938.921-1.438.625-.5 1.563-.5.687 0 1.203.282.531.28.875.812.344.516.531 1.266.188.75.188 2.031 0 1.516-.313 2.438-.297.921-.922 1.437-.609.5-1.562.5-1.235 0-1.953-.89-.844-1.063-.844-3.485Zm1.078 0q0 2.11.5 2.813.5.703 1.219.703.734 0 1.219-.703.5-.704.5-2.813 0-2.125-.5-2.812-.485-.704-1.235-.704-.719 0-1.156.61-.547.781-.547 2.906Zm5.922 0q0-1.531.313-2.453.312-.938.921-1.438.625-.5 1.563-.5.687 0 1.203.282.531.28.875.812.344.516.531 1.266.188.75.188 2.031 0 1.516-.313 2.438-.297.921-.922 1.437-.609.5-1.562.5-1.235 0-1.953-.89-.844-1.063-.844-3.485Zm1.078 0q0 2.11.5 2.813.5.703 1.219.703.734 0 1.219-.703.5-.704.5-2.813 0-2.125-.5-2.812-.485-.704-1.235-.704-.719 0-1.156.61-.547.781-.547 2.906Zm5.922 0q0-1.531.313-2.453.312-.938.921-1.438.625-.5 1.563-.5.687 0 1.203.282.531.28.875.812.344.516.531 1.266.188.75.188 2.031 0 1.516-.313 2.438-.297.921-.922 1.437-.609.5-1.562.5-1.235 0-1.953-.89-.844-1.063-.844-3.485Zm1.078 0q0 2.11.5 2.813.5.703 1.219.703.734 0 1.219-.703.5-.704.5-2.813 0-2.125-.5-2.812-.485-.704-1.235-.704-.719 0-1.156.61-.547.781-.547 2.906ZM24.519 59.432l-1.047.078q-.14-.625-.39-.906-.438-.453-1.063-.453-.5 0-.89.281-.485.375-.782 1.078-.281.688-.297 1.97.375-.579.922-.86.562-.281 1.172-.281 1.047 0 1.781.78.75.782.75 2 0 .813-.36 1.516-.343.688-.953 1.063-.609.36-1.374.36-1.329 0-2.157-.97-.828-.968-.828-3.187 0-2.5.922-3.625.797-.984 2.156-.984 1.016 0 1.657.578.656.562.78 1.562Zm-4.297 3.703q0 .547.219 1.047.234.485.64.75.422.266.89.266.657 0 1.142-.531.484-.547.484-1.47 0-.89-.485-1.405-.468-.516-1.187-.516-.719 0-1.219.516-.484.515-.484 1.343Zm5.828-1.453q0-1.531.313-2.453.312-.937.921-1.437.625-.5 1.563-.5.687 0 1.203.28.531.282.875.813.344.516.531 1.266.188.75.188 2.031 0 1.516-.313 2.438-.297.922-.922 1.437-.609.5-1.562.5-1.235 0-1.953-.89-.844-1.063-.844-3.485Zm1.078 0q0 2.11.5 2.813.5.703 1.219.703.734 0 1.219-.703.5-.703.5-2.813 0-2.125-.5-2.812-.485-.703-1.235-.703-.718 0-1.156.609-.547.781-.547 2.906Zm5.922 0q0-1.531.313-2.453.312-.937.921-1.437.625-.5 1.563-.5.687 0 1.203.28.531.282.875.813.344.516.531 1.266.188.75.188 2.031 0 1.516-.313 2.438-.297.922-.922 1.437-.609.5-1.562.5-1.235 0-1.953-.89-.844-1.063-.844-3.485Zm1.078 0q0 2.11.5 2.813.5.703 1.219.703.734 0 1.219-.703.5-.703.5-2.813 0-2.125-.5-2.812-.485-.703-1.235-.703-.719 0-1.156.609-.547.781-.547 2.906Zm5.922 0q0-1.531.313-2.453.312-.937.921-1.437.625-.5 1.563-.5.687 0 1.203.28.531.282.875.813.344.516.531 1.266.188.75.188 2.031 0 1.516-.313 2.438-.297.922-.922 1.437-.609.5-1.562.5-1.235 0-1.953-.89-.844-1.063-.844-3.485Zm1.078 0q0 2.11.5 2.813.5.703 1.219.703.734 0 1.219-.703.5-.703.5-2.813 0-2.125-.5-2.812-.485-.703-1.235-.703-.719 0-1.156.609-.547.781-.547 2.906Zm5.922 0q0-1.531.313-2.453.312-.937.921-1.437.625-.5 1.563-.5.687 0 1.203.28.531.282.875.813.344.516.531 1.266.188.75.188 2.031 0 1.516-.313 2.438-.297.922-.922 1.437-.609.5-1.562.5-1.235 0-1.953-.89-.844-1.063-.844-3.485Zm1.078 0q0 2.11.5 2.813.5.703 1.219.703.734 0 1.219-.703.5-.703.5-2.813 0-2.125-.5-2.812-.485-.703-1.235-.703-.719 0-1.156.609-.547.781-.547 2.906ZM182.332 349.45v-8.594h1.141v7.578h4.234v1.016h-5.375Zm6.532-3.11q0-1.734.953-2.562.797-.687 1.953-.687 1.281 0 2.094.843.828.828.828 2.313 0 1.203-.36 1.89-.359.688-1.062 1.079-.688.375-1.5.375-1.297 0-2.11-.829-.796-.843-.796-2.421Zm1.078 0q0 1.188.515 1.782.532.594 1.313.594.797 0 1.312-.594.516-.594.516-1.813 0-1.156-.531-1.75-.516-.593-1.297-.593-.781 0-1.313.593-.515.578-.515 1.782Zm10.375.829 1.031.14q-.172 1.063-.875 1.672-.703.61-1.719.61-1.28 0-2.062-.829-.766-.843-.766-2.406 0-1 .328-1.75.344-.765 1.016-1.14.687-.375 1.5-.375 1 0 1.64.515.657.5.844 1.453l-1.03.157q-.142-.625-.517-.938-.375-.328-.906-.328-.797 0-1.297.578-.5.563-.5 1.797 0 1.266.485 1.828.484.563 1.25.563.625 0 1.03-.375.423-.375.548-1.172Zm1.937 2.281v-8.594h1.063v4.906l2.484-2.53h1.375l-2.39 2.296 2.625 3.922h-1.297l-2.063-3.188-.734.72v2.468h-1.063Zm10.032 0v-.781q-.594.922-1.735.922-.75 0-1.375-.407-.625-.422-.969-1.156-.343-.734-.343-1.687 0-.922.312-1.688.313-.766.938-1.156.625-.406 1.39-.406.563 0 1 .234.438.234.72.61v-3.079h1.046v8.594h-.984Zm-3.329-3.11q0 1.204.5 1.798.5.578 1.188.578.687 0 1.172-.563.484-.562.484-1.719 0-1.28-.5-1.875-.484-.593-1.203-.593-.703 0-1.172.578-.469.562-.469 1.797Zm5.907 0q0-1.734.953-2.562.797-.687 1.953-.687 1.281 0 2.094.843.828.828.828 2.313 0 1.203-.36 1.89-.359.688-1.062 1.079-.688.375-1.5.375-1.297 0-2.11-.829-.796-.843-.796-2.421Zm1.078 0q0 1.188.515 1.782.532.594 1.313.594.797 0 1.312-.594.516-.594.516-1.813 0-1.156-.531-1.75-.516-.593-1.297-.593-.781 0-1.313.593-.515.578-.515 1.782Zm7.453 3.11-1.906-6.219h1.093l.985 3.594.375 1.328q.031-.094.328-1.281l.984-3.64h1.078l.938 3.609.312 1.187.36-1.203 1.062-3.594h1.032l-1.954 6.219h-1.093l-.985-3.734-.25-1.047-1.25 4.781h-1.11Zm7.86 0v-6.219h.937v.875q.687-1.015 1.984-1.015.563 0 1.031.203.485.203.72.531.234.328.327.766.047.296.047 1.03v3.829h-1.047v-3.781q0-.656-.125-.969-.125-.313-.437-.5-.313-.203-.735-.203-.671 0-1.171.437-.485.422-.485 1.61v3.406h-1.047Zm179.225 0v-8.594h3.813q1.156 0 1.75.235.593.234.953.828.359.578.359 1.281 0 .922-.594 1.547-.593.625-1.828.797.453.219.688.422.5.453.937 1.14l1.5 2.344h-1.437l-1.125-1.781q-.5-.781-.828-1.188-.313-.406-.579-.562-.25-.172-.515-.25-.188-.031-.625-.031h-1.328v3.812h-1.141Zm1.14-4.797h2.454q.765 0 1.203-.156.453-.172.672-.516.234-.36.234-.781 0-.61-.453-1-.437-.39-1.39-.39h-2.72v2.843Zm11.97 2.797 1.093.125q-.25.953-.953 1.484-.703.532-1.781.532-1.36 0-2.172-.844-.797-.844-.797-2.36 0-1.562.813-2.421.812-.875 2.093-.875 1.25 0 2.032.843.796.844.796 2.391v.281h-4.64q.062 1.031.578 1.578.516.532 1.297.532.578 0 .984-.297.422-.313.656-.969Zm-3.454-1.703h3.469q-.062-.797-.39-1.188-.516-.609-1.313-.609-.734 0-1.234.484-.485.485-.532 1.313Zm6 4.219 1.032.156q.062.469.359.687.39.297 1.062.297.735 0 1.125-.297.407-.297.547-.812.094-.328.078-1.36-.687.813-1.718.813-1.282 0-1.985-.922-.703-.937-.703-2.219 0-.89.313-1.64.328-.766.937-1.172.61-.406 1.438-.406 1.109 0 1.828.89v-.75h.969v5.375q0 1.453-.297 2.063-.297.61-.938.953-.64.36-1.578.36-1.11 0-1.797-.5-.687-.5-.672-1.516Zm.875-3.735q0 1.219.485 1.781.484.563 1.218.563.735 0 1.22-.563.5-.562.5-1.75 0-1.14-.516-1.718-.5-.578-1.22-.578-.702 0-1.202.578-.485.562-.485 1.687Zm10.407 3.219v-.922q-.735 1.063-1.985 1.063-.547 0-1.031-.204-.469-.218-.703-.53-.235-.329-.328-.798-.063-.297-.063-.984v-3.844h1.063v3.453q0 .813.062 1.11.094.406.406.656.329.234.813.234.469 0 .875-.234.422-.25.594-.672.187-.422.187-1.219v-3.328h1.047v6.219h-.937Zm2.89 0v-8.594h1.063v8.594h-1.063Zm7.094-.766q-.594.5-1.14.703-.532.204-1.157.204-1.031 0-1.578-.5-.547-.5-.547-1.282 0-.453.203-.828.203-.39.547-.61.344-.233.766-.343.297-.094.937-.172 1.266-.14 1.875-.36v-.265q0-.656-.297-.922-.406-.343-1.203-.343-.734 0-1.094.265-.359.25-.53.906l-1.032-.14q.14-.656.469-1.063.328-.406.937-.625.61-.218 1.406-.218.797 0 1.297.187.5.188.735.469.234.281.328.719.047.265.047.968v1.407q0 1.468.062 1.859.078.39.281.75h-1.109q-.156-.328-.203-.766Zm-.094-2.359q-.578.234-1.719.406-.656.094-.921.219-.266.11-.422.328-.141.219-.141.5 0 .422.313.703.328.281.937.281.61 0 1.078-.265.485-.266.703-.735.172-.359.172-1.046v-.391Zm3.016 3.125v-6.219h.953v.938q.36-.656.656-.86.313-.218.688-.218.53 0 1.078.328l-.36.984q-.39-.234-.765-.234-.36 0-.64.219-.266.203-.376.578-.187.562-.187 1.218v3.266h-1.047Z"/><path fill="#757575" d="M19.519 30.581q0-3.562 1.906-5.578 1.922-2.031 4.953-2.031 1.985 0 3.563.953 1.593.953 2.421 2.656.844 1.688.844 3.828 0 2.172-.875 3.891-.875 1.719-2.5 2.61-1.61.89-3.468.89-2.016 0-3.61-.969-1.594-.984-2.422-2.672-.812-1.703-.812-3.578Zm1.953.032q0 2.578 1.39 4.078 1.391 1.484 3.485 1.484 2.14 0 3.515-1.5 1.391-1.516 1.391-4.281 0-1.735-.594-3.031-.578-1.313-1.718-2.032-1.141-.718-2.563-.718-2 0-3.453 1.39-1.453 1.375-1.453 4.61Zm21.172 3.14 1.718.219q-.28 1.797-1.453 2.812-1.156 1-2.859 1-2.125 0-3.422-1.39-1.297-1.39-1.297-3.985 0-1.687.547-2.937.563-1.266 1.703-1.89 1.14-.641 2.485-.641 1.687 0 2.75.859 1.078.86 1.39 2.422l-1.719.265q-.234-1.046-.859-1.562-.625-.531-1.5-.531-1.328 0-2.156.953-.828.953-.828 3 0 2.094.797 3.047.796.937 2.093.937 1.032 0 1.72-.625.702-.64.89-1.953Zm7.062 2.219.25 1.562q-.734.157-1.328.157-.953 0-1.484-.297-.516-.313-.735-.797-.218-.5-.218-2.078V28.55h-1.282v-1.375h1.282v-2.563l1.75-1.062v3.625h1.765v1.375h-1.765v6.062q0 .75.093.97.094.202.297.343.219.125.61.125.28 0 .765-.078Zm8.938.297q-.985.828-1.89 1.172-.907.343-1.938.343-1.704 0-2.625-.828-.922-.844-.922-2.14 0-.766.343-1.391.36-.625.922-1 .563-.39 1.266-.594.516-.125 1.563-.265 2.124-.25 3.124-.594.016-.36.016-.469 0-1.062-.5-1.515-.672-.594-2-.594-1.25 0-1.844.437-.578.438-.859 1.547l-1.719-.234q.235-1.11.766-1.781.531-.688 1.547-1.047 1.015-.375 2.36-.375 1.327 0 2.155.312.828.313 1.22.797.39.469.546 1.188.094.453.094 1.625v2.343q0 2.453.11 3.11.108.64.452 1.234h-1.844q-.265-.547-.343-1.281Zm-.157-3.922q-.953.39-2.875.656-1.078.156-1.53.36-.438.187-.688.562-.25.375-.25.844 0 .703.531 1.172.531.468 1.563.468 1.015 0 1.796-.437.797-.453 1.172-1.219.281-.61.281-1.766v-.64Zm4.375 5.203V27.175h1.594v1.484q1.14-1.718 3.297-1.718.938 0 1.719.343.797.329 1.187.875.391.547.547 1.297.094.5.094 1.719v6.375h-1.766v-6.312q0-1.079-.203-1.61-.203-.531-.734-.844-.516-.312-1.219-.312-1.125 0-1.937.719-.813.703-.813 2.687v5.672h-1.766Zm17.11-3.344 1.812.235q-.422 1.578-1.593 2.468-1.157.875-2.97.875-2.265 0-3.609-1.39-1.328-1.407-1.328-3.938 0-2.625 1.344-4.062 1.344-1.453 3.5-1.453 2.078 0 3.39 1.422 1.329 1.406 1.329 3.984 0 .156-.016.469h-7.734q.094 1.703.969 2.609.875.906 2.171.906.97 0 1.641-.5.688-.515 1.094-1.625Zm-5.781-2.844h5.796q-.109-1.296-.656-1.953-.844-1.015-2.187-1.015-1.203 0-2.032.812-.828.797-.921 2.157Zm19.03 10.391q-1.452-1.828-2.452-4.281-1-2.469-1-5.11 0-2.328.75-4.453.875-2.468 2.703-4.921h1.266q-1.188 2.03-1.563 2.906-.594 1.344-.938 2.812-.421 1.828-.421 3.672 0 4.688 2.921 9.375h-1.265Zm3.641-4.203V23.238h1.766v5.125q1.234-1.422 3.11-1.422 1.14 0 1.984.453.86.453 1.219 1.265.375.797.375 2.313v6.578h-1.75v-6.578q0-1.313-.579-1.906-.578-.61-1.609-.61-.781 0-1.484.407-.688.406-.985 1.109-.28.687-.28 1.906v5.672h-1.767Zm10.016-12.297v-2.015h1.766v2.015h-1.766Zm0 12.297V27.175h1.766V37.55h-1.766Zm3.672.86 1.703.25q.11.796.594 1.156.656.484 1.797.484 1.218 0 1.875-.484.672-.485.906-1.36.14-.547.125-2.265-1.156 1.359-2.875 1.359-2.14 0-3.313-1.547-1.171-1.547-1.171-3.703 0-1.484.53-2.734.548-1.25 1.563-1.938 1.032-.687 2.407-.687 1.828 0 3.03 1.484v-1.25h1.61v8.969q0 2.422-.5 3.422-.484 1.015-1.562 1.593-1.063.594-2.625.594-1.844 0-3-.828-1.14-.828-1.094-2.516Zm1.453-6.235q0 2.047.813 2.984.812.938 2.03.938 1.204 0 2.016-.938.829-.937.829-2.922 0-1.906-.844-2.875-.844-.968-2.031-.968-1.172 0-2 .953-.813.953-.813 2.828Zm9.86 5.375V23.238h1.765v5.125q1.234-1.422 3.11-1.422 1.14 0 1.984.453.86.453 1.219 1.265.375.797.375 2.313v6.578h-1.75v-6.578q0-1.313-.579-1.906-.578-.61-1.609-.61-.781 0-1.484.407-.688.406-.985 1.109-.28.687-.28 1.906v5.672h-1.767Zm17.109-3.344 1.812.235q-.421 1.578-1.593 2.468-1.157.875-2.97.875-2.265 0-3.608-1.39-1.329-1.407-1.329-3.938 0-2.625 1.344-4.062 1.344-1.453 3.5-1.453 2.078 0 3.39 1.422 1.329 1.406 1.329 3.984 0 .156-.016.469h-7.734q.094 1.703.969 2.609.875.906 2.172.906.968 0 1.64-.5.688-.515 1.094-1.625Zm-5.781-2.844h5.797q-.11-1.296-.657-1.953-.843-1.015-2.187-1.015-1.203 0-2.031.812-.829.797-.922 2.157Zm9.656 6.188V27.175h1.578v1.578q.61-1.11 1.125-1.453.516-.36 1.125-.36.89 0 1.813.563l-.61 1.64q-.64-.39-1.281-.39-.578 0-1.047.36-.453.343-.656.953-.281.937-.281 2.046v5.438h-1.766Zm13.031-12.297v-2.015h1.766v2.015h-1.766Zm0 12.297V27.175h1.766V37.55h-1.766Zm3.281-3.094 1.75-.281q.141 1.047.813 1.61.672.546 1.875.546 1.203 0 1.781-.484.594-.5.594-1.156 0-.594-.516-.938-.36-.234-1.797-.594-1.937-.5-2.687-.843-.734-.36-1.125-.985-.39-.64-.39-1.406 0-.688.312-1.281.328-.594.875-.985.406-.296 1.11-.5.718-.218 1.53-.218 1.22 0 2.141.359.922.344 1.36.953.437.594.609 1.594l-1.719.234q-.125-.797-.688-1.234-.562-.453-1.578-.453-1.218 0-1.734.406-.516.39-.516.922 0 .344.22.625.202.281.671.469.266.093 1.547.437 1.875.5 2.61.828.734.313 1.156.922.421.594.421 1.5 0 .875-.515 1.656-.516.782-1.485 1.203-.968.422-2.187.422-2.016 0-3.078-.843-1.063-.844-1.36-2.485Zm18.329 3.094h-1.625V23.238h1.75v5.109q1.125-1.406 2.843-1.406.953 0 1.813.39t1.406 1.094q.547.688.86 1.672.312.984.312 2.11 0 2.671-1.313 4.124-1.312 1.453-3.156 1.453t-2.89-1.53v1.296Zm-.016-5.266q0 1.86.5 2.703.844 1.344 2.25 1.344 1.156 0 1.984-1 .844-1 .844-2.984 0-2.031-.813-2.985-.796-.968-1.937-.968-1.156 0-2 1-.828 1-.828 2.89Zm16.5 1.922 1.812.235q-.421 1.578-1.593 2.468-1.157.875-2.97.875-2.265 0-3.608-1.39-1.329-1.407-1.329-3.938 0-2.625 1.344-4.062 1.344-1.453 3.5-1.453 2.078 0 3.39 1.422 1.329 1.406 1.329 3.984 0 .156-.016.469h-7.734q.094 1.703.969 2.609.875.906 2.172.906.968 0 1.64-.5.688-.515 1.094-1.625Zm-5.781-2.844h5.797q-.11-1.296-.657-1.953-.843-1.015-2.187-1.015-1.203 0-2.031.812-.829.797-.922 2.157Zm13.515 4.61.25 1.562q-.734.157-1.328.157-.953 0-1.484-.297-.516-.313-.735-.797-.218-.5-.218-2.078V28.55h-1.282v-1.375h1.282v-2.563l1.75-1.062v3.625h1.765v1.375h-1.765v6.062q0 .75.093.97.094.202.297.343.219.125.61.125.28 0 .765-.078Zm6 0 .25 1.562q-.734.157-1.328.157-.953 0-1.484-.297-.516-.313-.735-.797-.218-.5-.218-2.078V28.55h-1.282v-1.375h1.282v-2.563l1.75-1.062v3.625h1.765v1.375h-1.765v6.062q0 .75.093.97.094.202.297.343.219.125.61.125.28 0 .765-.078Zm9.266-1.766 1.812.235q-.421 1.578-1.593 2.468-1.157.875-2.97.875-2.265 0-3.608-1.39-1.329-1.407-1.329-3.938 0-2.625 1.344-4.062 1.344-1.453 3.5-1.453 2.078 0 3.39 1.422 1.329 1.406 1.329 3.984 0 .156-.016.469h-7.734q.094 1.703.969 2.609.875.906 2.172.906.968 0 1.64-.5.688-.515 1.094-1.625Zm-5.781-2.844h5.797q-.11-1.296-.657-1.953-.843-1.015-2.187-1.015-1.203 0-2.031.812-.829.797-.922 2.157Zm9.656 6.188V27.175h1.578v1.578q.61-1.11 1.125-1.453.516-.36 1.125-.36.89 0 1.813.563l-.61 1.64q-.64-.39-1.281-.39-.578 0-1.047.36-.453.343-.656.953-.281.937-.281 2.046v5.438h-1.766Zm8.172 4.203h-1.25q2.906-4.687 2.906-9.375 0-1.844-.406-3.64-.344-1.47-.938-2.813-.375-.89-1.562-2.938h1.25q1.844 2.454 2.719 4.922.75 2.125.75 4.453 0 2.641-1.016 5.11-1 2.453-2.453 4.281Z"/></svg>