<svg xmlns="http://www.w3.org/2000/svg" width="600" height="371" fill="none" stroke-linecap="square" stroke-miterlimit="10"><path fill="#fff" d="M0 0h600v371H0V0Z"/><path stroke="#333" stroke-linecap="butt" d="M45.5 332.5h536"/><path stroke="#ccc" stroke-linecap="butt" d="M45.5 264.5h536m-536-67h536m-536-68h536m-536-68h536"/><clipPath id="a"><path d="M45.55 61.917h535.9V332.45H45.55V61.917Z"/></clipPath><path d="M273 332H125v-73a2 2 0 0 1 2-2h144a2 2 0 0 1 2 2Z" clip-path="url(#a)"/><path fill="#4285f4" d="M273 332H125v-73a2 2 0 0 1 2-2h144a2 2 0 0 1 2 2Z" clip-path="url(#a)"/><path d="M502 332H354V130a2 2 0 0 1 2-2h144a2 2 0 0 1 2 2Z" clip-path="url(#a)"/><path fill="#4285f4" d="M502 332H354V130a2 2 0 0 1 2-2h144a2 2 0 0 1 2 2Z" clip-path="url(#a)"/><path stroke="#4285f4" stroke-linecap="round" stroke-linejoin="round" stroke-width="3" d="M192.766 273.5h-1.078v-7.218l-2.188.797v-.985l3.11-1.171h.156v8.578Zm7 0h-1.078v-7.218l-2.188.797v-.985l3.11-1.171h.156v8.578Zm9.03 0h-5.593v-.78l2.953-3.282q.656-.75.906-1.203.25-.469.25-.969 0-.672-.406-1.093-.39-.438-1.078-.438-.797 0-1.25.469-.453.453-.453 1.281h-1.078q0-1.187.75-1.906.766-.735 2.031-.735 1.203 0 1.89.625.688.625.688 1.672 0 1.25-1.61 3l-2.28 2.469h4.28v.89Z"/><path fill="#fff" d="M192.766 273.5h-1.078v-7.218l-2.188.797v-.985l3.11-1.171h.156v8.578Zm7 0h-1.078v-7.218l-2.188.797v-.985l3.11-1.171h.156v8.578Zm9.03 0h-5.593v-.78l2.953-3.282q.656-.75.906-1.203.25-.469.25-.969 0-.672-.406-1.093-.39-.438-1.078-.438-.797 0-1.25.469-.453.453-.453 1.281h-1.078q0-1.187.75-1.906.766-.735 2.031-.735 1.203 0 1.89.625.688.625.688 1.672 0 1.25-1.61 3l-2.28 2.469h4.28v.89Z"/><path stroke="#4285f4" stroke-linecap="round" stroke-linejoin="round" stroke-width="3" d="M419.781 139.524h.813q.781-.016 1.219-.406.437-.39.437-1.063 0-1.5-1.5-1.5-.703 0-1.125.407-.406.406-.406 1.062h-1.094q0-1.016.734-1.687.75-.672 1.891-.672 1.203 0 1.89.64.688.641.688 1.782 0 .562-.36 1.078-.359.515-.984.781.704.219 1.079.734.39.516.39 1.266 0 1.14-.75 1.828-.75.672-1.953.672-1.188 0-1.953-.656-.75-.656-.75-1.719h1.094q0 .672.437 1.078.438.406 1.188.406.78 0 1.187-.406.422-.422.422-1.187 0-.735-.453-1.125-.453-.407-1.328-.422h-.813v-.89Zm10.781 1.156q0 1.907-.656 2.844-.64.922-2.031.922-1.36 0-2.016-.906-.656-.906-.687-2.719v-1.438q0-1.89.64-2.796.657-.922 2.047-.922 1.375 0 2.032.89.656.875.671 2.72v1.405Zm-1.093-1.484q0-1.375-.39-2-.376-.64-1.22-.64-.828 0-1.218.64-.375.625-.375 1.922v1.734q0 1.375.39 2.047.406.656 1.219.656.797 0 1.188-.625.39-.625.406-1.953v-1.781Zm4.312.328h.813q.781-.016 1.219-.406.437-.39.437-1.063 0-1.5-1.5-1.5-.703 0-1.125.407-.406.406-.406 1.062h-1.094q0-1.016.734-1.687.75-.672 1.891-.672 1.203 0 1.89.64.688.641.688 1.782 0 .562-.36 1.078-.359.515-.984.781.704.219 1.079.734.39.516.39 1.266 0 1.14-.75 1.828-.75.672-1.953.672-1.188 0-1.953-.656-.75-.656-.75-1.719h1.094q0 .672.437 1.078.438.406 1.188.406.78 0 1.187-.406.422-.422.422-1.187 0-.735-.453-1.125-.453-.407-1.328-.422h-.813v-.89Z"/><path fill="#fff" d="M419.781 139.524h.813q.781-.016 1.219-.406.437-.39.437-1.063 0-1.5-1.5-1.5-.703 0-1.125.407-.406.406-.406 1.062h-1.094q0-1.016.734-1.687.75-.672 1.891-.672 1.203 0 1.89.64.688.641.688 1.782 0 .562-.36 1.078-.359.515-.984.781.704.219 1.079.734.39.516.39 1.266 0 1.14-.75 1.828-.75.672-1.953.672-1.188 0-1.953-.656-.75-.656-.75-1.719h1.094q0 .672.437 1.078.438.406 1.188.406.78 0 1.187-.406.422-.422.422-1.187 0-.735-.453-1.125-.453-.407-1.328-.422h-.813v-.89Zm10.781 1.156q0 1.907-.656 2.844-.64.922-2.031.922-1.36 0-2.016-.906-.656-.906-.687-2.719v-1.438q0-1.89.64-2.796.657-.922 2.047-.922 1.375 0 2.032.89.656.875.671 2.72v1.405Zm-1.093-1.484q0-1.375-.39-2-.376-.64-1.22-.64-.828 0-1.218.64-.375.625-.375 1.922v1.734q0 1.375.39 2.047.406.656 1.219.656.797 0 1.188-.625.39-.625.406-1.953v-1.781Zm4.312.328h.813q.781-.016 1.219-.406.437-.39.437-1.063 0-1.5-1.5-1.5-.703 0-1.125.407-.406.406-.406 1.062h-1.094q0-1.016.734-1.687.75-.672 1.891-.672 1.203 0 1.89.64.688.641.688 1.782 0 .562-.36 1.078-.359.515-.984.781.704.219 1.079.734.39.516.39 1.266 0 1.14-.75 1.828-.75.672-1.953.672-1.188 0-1.953-.656-.75-.656-.75-1.719h1.094q0 .672.437 1.078.438.406 1.188.406.78 0 1.187-.406.422-.422.422-1.187 0-.735-.453-1.125-.453-.407-1.328-.422h-.813v-.89Z"/><path fill="#000" d="M33.05 332.216q0-1.532.313-2.454.312-.937.921-1.437.625-.5 1.563-.5.687 0 1.203.281.531.281.875.813.344.515.531 1.265.188.75.188 2.032 0 1.515-.313 2.437-.297.922-.922 1.438-.609.5-1.562.5-1.235 0-1.953-.891-.844-1.063-.844-3.484Zm1.078 0q0 2.109.5 2.812.5.703 1.219.703.734 0 1.219-.703.5-.703.5-2.812 0-2.125-.5-2.813-.485-.703-1.235-.703-.719 0-1.156.61-.547.78-.547 2.906Zm-11.109-63.399h-1.047v-6.72q-.39.36-1.016.735-.61.36-1.093.532v-1.016q.875-.422 1.53-1 .673-.594.954-1.156h.672v8.625Zm3.031-4.235q0-1.53.313-2.453.312-.937.921-1.437.625-.5 1.563-.5.687 0 1.203.28.531.282.875.813.344.516.531 1.266.188.75.188 2.031 0 1.516-.313 2.438-.297.922-.922 1.437-.609.5-1.562.5-1.235 0-1.953-.89-.844-1.063-.844-3.485Zm1.078 0q0 2.11.5 2.813.5.703 1.219.703.734 0 1.219-.703.5-.703.5-2.813 0-2.125-.5-2.812-.485-.703-1.235-.703-.718 0-1.156.61-.547.78-.547 2.905Zm5.922 0q0-1.53.313-2.453.312-.937.921-1.437.625-.5 1.563-.5.687 0 1.203.28.531.282.875.813.344.516.531 1.266.188.75.188 2.031 0 1.516-.313 2.438-.297.922-.922 1.437-.609.5-1.562.5-1.235 0-1.953-.89-.844-1.063-.844-3.485Zm1.078 0q0 2.11.5 2.813.5.703 1.219.703.734 0 1.219-.703.5-.703.5-2.813 0-2.125-.5-2.812-.485-.703-1.235-.703-.719 0-1.156.61-.547.78-.547 2.905Zm-9.531-64.414v1.015h-5.688q0-.375.125-.734.22-.578.688-1.14.484-.563 1.39-1.298 1.407-1.156 1.891-1.828.5-.672.5-1.265 0-.625-.453-1.047-.453-.438-1.172-.438-.765 0-1.219.453-.453.454-.468 1.266l-1.078-.11q.109-1.218.828-1.843.734-.64 1.968-.64 1.235 0 1.954.687.718.687.718 1.703 0 .516-.218 1.016-.204.484-.704 1.046-.484.547-1.609 1.5-.953.797-1.234 1.094-.266.281-.438.563h4.219Zm1.453-3.219q0-1.531.313-2.453.312-.938.921-1.438.625-.5 1.563-.5.687 0 1.203.282.531.28.875.812.344.516.531 1.266.188.75.188 2.031 0 1.516-.313 2.437-.297.922-.922 1.438-.609.5-1.562.5-1.235 0-1.953-.89-.844-1.063-.844-3.485Zm1.078 0q0 2.11.5 2.812.5.704 1.219.704.734 0 1.219-.704.5-.703.5-2.812 0-2.125-.5-2.813-.485-.703-1.235-.703-.718 0-1.156.61-.547.781-.547 2.906Zm5.922 0q0-1.531.313-2.453.312-.938.921-1.438.625-.5 1.563-.5.687 0 1.203.282.531.28.875.812.344.516.531 1.266.188.75.188 2.031 0 1.516-.313 2.437-.297.922-.922 1.438-.609.5-1.562.5-1.235 0-1.953-.89-.844-1.063-.844-3.485Zm1.078 0q0 2.11.5 2.812.5.704 1.219.704.734 0 1.219-.704.5-.703.5-2.812 0-2.125-.5-2.813-.485-.703-1.235-.703-.719 0-1.156.61-.547.781-.547 2.906ZM19.05 131.284l1.063-.14q.171.89.609 1.297.437.39 1.062.39.75 0 1.266-.515.516-.516.516-1.282 0-.718-.485-1.187-.468-.484-1.203-.484-.297 0-.75.125l.125-.938q.11.016.172.016.672 0 1.203-.344.547-.36.547-1.094 0-.578-.39-.953-.391-.39-1.016-.39-.61 0-1.031.39-.407.39-.516 1.156l-1.063-.187q.188-1.047.875-1.625.688-.594 1.704-.594.703 0 1.296.313.594.296.907.812.312.516.312 1.11 0 .546-.297 1.015-.297.453-.875.719.75.172 1.172.734.422.547.422 1.39 0 1.126-.828 1.907-.813.781-2.063.781-1.125 0-1.875-.672-.75-.687-.859-1.75Zm7-1.968q0-1.532.313-2.454.312-.937.921-1.437.625-.5 1.563-.5.687 0 1.203.281.531.281.875.813.344.515.531 1.265.188.75.188 2.032 0 1.515-.313 2.437-.297.922-.922 1.438-.609.5-1.562.5-1.235 0-1.953-.891-.844-1.063-.844-3.484Zm1.078 0q0 2.109.5 2.812.5.703 1.219.703.734 0 1.219-.703.5-.703.5-2.812 0-2.125-.5-2.813-.485-.703-1.235-.703-.718 0-1.156.61-.547.78-.547 2.906Zm5.922 0q0-1.532.313-2.454.312-.937.921-1.437.625-.5 1.563-.5.687 0 1.203.281.531.281.875.813.344.515.531 1.265.188.75.188 2.032 0 1.515-.313 2.437-.297.922-.922 1.438-.609.5-1.562.5-1.235 0-1.953-.891-.844-1.063-.844-3.484Zm1.078 0q0 2.109.5 2.812.5.703 1.219.703.734 0 1.219-.703.5-.703.5-2.812 0-2.125-.5-2.813-.485-.703-1.235-.703-.719 0-1.156.61-.547.78-.547 2.906ZM22.425 65.917v-2.063h-3.719v-.969l3.922-5.562h.86v5.562h1.156v.97h-1.156v2.062h-1.063Zm0-3.032v-3.859l-2.688 3.86h2.688Zm3.625-1.203q0-1.531.313-2.453.312-.937.921-1.437.625-.5 1.563-.5.687 0 1.203.28.531.282.875.813.344.516.531 1.266.188.75.188 2.031 0 1.516-.313 2.438-.297.922-.922 1.437-.609.5-1.562.5-1.235 0-1.953-.89-.844-1.063-.844-3.485Zm1.078 0q0 2.11.5 2.813.5.703 1.219.703.734 0 1.219-.703.5-.703.5-2.813 0-2.125-.5-2.812-.485-.703-1.235-.703-.718 0-1.156.609-.547.781-.547 2.906Zm5.922 0q0-1.531.313-2.453.312-.937.921-1.437.625-.5 1.563-.5.687 0 1.203.28.531.282.875.813.344.516.531 1.266.188.75.188 2.031 0 1.516-.313 2.438-.297.922-.922 1.437-.609.5-1.562.5-1.235 0-1.953-.89-.844-1.063-.844-3.485Zm1.078 0q0 2.11.5 2.813.5.703 1.219.703.734 0 1.219-.703.5-.703.5-2.813 0-2.125-.5-2.812-.485-.703-1.235-.703-.719 0-1.156.609-.547.781-.547 2.906ZM172.354 349.45v-8.594h1.14v7.578h4.235v1.016h-5.375Zm6.531-3.11q0-1.734.953-2.562.797-.687 1.953-.687 1.281 0 2.094.843.828.828.828 2.313 0 1.203-.36 1.89-.359.688-1.062 1.079-.687.375-1.5.375-1.297 0-2.11-.829-.796-.843-.796-2.421Zm1.078 0q0 1.188.516 1.782.531.594 1.312.594.797 0 1.313-.594.515-.594.515-1.813 0-1.156-.53-1.75-.517-.593-1.298-.593t-1.312.593q-.516.578-.516 1.782Zm10.375.829 1.031.14q-.172 1.063-.875 1.672-.703.61-1.718.61-1.282 0-2.063-.829-.766-.843-.766-2.406 0-1 .329-1.75.343-.765 1.015-1.14.688-.375 1.5-.375 1 0 1.64.515.657.5.845 1.453l-1.032.157q-.14-.625-.515-.938-.375-.328-.907-.328-.796 0-1.296.578-.5.563-.5 1.797 0 1.266.484 1.828.484.563 1.25.563.625 0 1.031-.375.422-.375.547-1.172Zm1.938 2.281v-8.594h1.062v4.906l2.484-2.53h1.375l-2.39 2.296 2.625 3.922h-1.297l-2.063-3.188-.734.72v2.468h-1.062Zm10.03 0v-.781q-.593.922-1.734.922-.75 0-1.375-.407-.625-.422-.968-1.156-.344-.734-.344-1.687 0-.922.312-1.688.313-.766.938-1.156.625-.406 1.39-.406.563 0 1 .234.438.234.72.61v-3.079h1.046v8.594h-.984Zm-3.327-3.11q0 1.204.5 1.798.5.578 1.187.578.688 0 1.172-.563.484-.562.484-1.719 0-1.28-.5-1.875-.484-.593-1.203-.593-.703 0-1.172.578-.468.562-.468 1.797Zm5.906 0q0-1.734.953-2.562.797-.687 1.953-.687 1.281 0 2.094.843.828.828.828 2.313 0 1.203-.36 1.89-.359.688-1.062 1.079-.687.375-1.5.375-1.297 0-2.11-.829-.796-.843-.796-2.421Zm1.078 0q0 1.188.516 1.782.531.594 1.312.594.797 0 1.313-.594.515-.594.515-1.813 0-1.156-.53-1.75-.517-.593-1.298-.593t-1.312.593q-.516.578-.516 1.782Zm7.453 3.11-1.906-6.219h1.094l.984 3.594.375 1.328q.031-.094.328-1.281l.985-3.64h1.078l.937 3.609.313 1.187.36-1.203 1.062-3.594h1.03l-1.952 6.219h-1.094l-.984-3.734-.25-1.047-1.25 4.781h-1.11Zm7.86 0v-6.219h.937v.875q.688-1.015 1.984-1.015.563 0 1.032.203.484.203.718.531.235.328.329.766.046.296.046 1.03v3.829h-1.046v-3.781q0-.656-.125-.969-.125-.313-.438-.5-.312-.203-.734-.203-.672 0-1.172.437-.485.422-.485 1.61v3.406h-1.046Zm185.183 0v-8.594h3.812q1.157 0 1.75.235.594.234.953.828.36.578.36 1.281 0 .922-.594 1.547-.594.625-1.828.797.453.219.687.422.5.453.938 1.14l1.5 2.344h-1.438l-1.125-1.781q-.5-.781-.828-1.188-.312-.406-.578-.562-.25-.172-.515-.25-.188-.031-.625-.031h-1.329v3.812h-1.14Zm1.14-4.797h2.454q.765 0 1.203-.156.453-.172.672-.516.234-.36.234-.781 0-.61-.453-1-.438-.39-1.39-.39h-2.72v2.843Zm11.97 2.797 1.093.125q-.25.953-.953 1.484-.703.532-1.781.532-1.36 0-2.172-.844-.797-.844-.797-2.36 0-1.562.812-2.421.813-.875 2.094-.875 1.25 0 2.031.843.797.844.797 2.391v.281h-4.64q.062 1.031.578 1.578.515.532 1.297.532.578 0 .984-.297.422-.313.656-.969Zm-3.454-1.703h3.469q-.063-.797-.39-1.188-.516-.609-1.313-.609-.735 0-1.235.484-.484.485-.531 1.313Zm6 4.219 1.031.156q.063.469.36.687.39.297 1.062.297.735 0 1.125-.297.406-.297.547-.812.094-.328.078-1.36-.687.813-1.719.813-1.28 0-1.984-.922-.703-.937-.703-2.219 0-.89.312-1.64.329-.766.938-1.172.61-.406 1.437-.406 1.11 0 1.829.89v-.75h.968v5.375q0 1.453-.297 2.063-.296.61-.937.953-.64.36-1.578.36-1.11 0-1.797-.5-.688-.5-.672-1.516Zm.875-3.735q0 1.219.484 1.781.485.563 1.22.563.734 0 1.218-.563.5-.562.5-1.75 0-1.14-.516-1.718-.5-.578-1.218-.578-.704 0-1.204.578-.484.562-.484 1.687Zm10.406 3.219v-.922q-.734 1.063-1.984 1.063-.547 0-1.031-.204-.47-.218-.703-.53-.235-.329-.329-.798-.062-.297-.062-.984v-3.844h1.062v3.453q0 .813.063 1.11.094.406.406.656.328.234.813.234.468 0 .875-.234.422-.25.593-.672.188-.422.188-1.219v-3.328h1.047v6.219h-.938Zm2.89 0v-8.594h1.063v8.594h-1.062Zm7.095-.766q-.594.5-1.141.703-.531.204-1.156.204-1.031 0-1.578-.5-.547-.5-.547-1.282 0-.453.203-.828.203-.39.547-.61.344-.233.765-.343.297-.094.938-.172 1.266-.14 1.875-.36v-.265q0-.656-.297-.922-.406-.343-1.203-.343-.734 0-1.094.265-.36.25-.531.906l-1.031-.14q.14-.656.468-1.063.329-.406.938-.625.61-.218 1.406-.218.797 0 1.297.187.5.188.734.469.235.281.329.719.046.265.046.968v1.407q0 1.468.063 1.859.078.39.281.75h-1.11q-.155-.328-.202-.766Zm-.094-2.359q-.578.234-1.719.406-.656.094-.922.219-.265.11-.422.328-.14.219-.14.5 0 .422.312.703.328.281.938.281.61 0 1.078-.265.484-.266.703-.735.172-.359.172-1.046v-.391Zm3.016 3.125v-6.219h.953v.938q.359-.656.656-.86.312-.218.687-.218.532 0 1.079.328l-.36.984q-.39-.234-.765-.234-.36 0-.641.219-.266.203-.375.578-.188.562-.188 1.218v3.266h-1.046Z"/><path fill="#757575" d="m19.456 32.956 1.782-.156q.125 1.063.578 1.75.468.688 1.437 1.125.985.422 2.219.422 1.078 0 1.906-.313.828-.328 1.235-.89.406-.563.406-1.235 0-.672-.39-1.172-.392-.5-1.282-.843-.578-.235-2.563-.703-1.968-.47-2.75-.891-1.03-.531-1.53-1.328t-.5-1.781q0-1.094.608-2.032.61-.937 1.797-1.421 1.188-.5 2.625-.5 1.594 0 2.813.515 1.219.516 1.86 1.516.655.984.702 2.25l-1.812.14q-.14-1.359-.985-2.046-.843-.704-2.5-.704-1.718 0-2.515.641-.781.625-.781 1.5 0 .781.562 1.281.547.5 2.86 1.016 2.312.515 3.171.906 1.25.578 1.844 1.469.594.875.594 2.031 0 1.14-.656 2.156-.657 1.016-1.891 1.578-1.219.563-2.75.563-1.938 0-3.25-.563-1.313-.578-2.063-1.718-.75-1.14-.78-2.563Zm13.406 8.563V27.175h1.61v1.344q.562-.781 1.265-1.172.72-.406 1.735-.406 1.328 0 2.344.687 1.015.688 1.53 1.938.532 1.234.532 2.718 0 1.594-.578 2.875-.563 1.266-1.656 1.953-1.094.672-2.297.672-.875 0-1.578-.375-.688-.375-1.14-.937v5.047h-1.767Zm1.594-9.094q0 2 .813 2.953.812.953 1.968.953 1.172 0 2-.984.844-.985.844-3.078 0-1.969-.828-2.953-.812-1-1.937-1t-2 1.062q-.86 1.047-.86 3.047Zm16.516 1.781 1.812.235q-.422 1.578-1.593 2.468-1.157.875-2.97.875-2.265 0-3.608-1.39-1.329-1.407-1.329-3.938 0-2.625 1.344-4.062 1.344-1.453 3.5-1.453 2.078 0 3.39 1.422 1.329 1.406 1.329 3.984 0 .156-.016.469h-7.734q.094 1.703.969 2.609.875.906 2.171.906.97 0 1.641-.5.688-.515 1.094-1.625Zm-5.781-2.844h5.796q-.109-1.296-.656-1.953-.844-1.015-2.187-1.015-1.203 0-2.032.812-.828.797-.921 2.157Zm16.78 2.844 1.813.235q-.422 1.578-1.593 2.468-1.157.875-2.97.875-2.265 0-3.608-1.39-1.329-1.407-1.329-3.938 0-2.625 1.344-4.062 1.344-1.453 3.5-1.453 2.078 0 3.39 1.422 1.329 1.406 1.329 3.984 0 .156-.016.469h-7.734q.094 1.703.969 2.609.875.906 2.171.906.97 0 1.641-.5.688-.515 1.094-1.625Zm-5.78-2.844h5.796q-.109-1.296-.656-1.953-.844-1.015-2.187-1.015-1.203 0-2.032.812-.828.797-.921 2.157Zm16.406 6.188v-1.313q-.984 1.547-2.906 1.547-1.235 0-2.282-.687-1.03-.688-1.609-1.906-.563-1.22-.563-2.813 0-1.562.516-2.828.516-1.266 1.547-1.938 1.047-.671 2.313-.671.937 0 1.671.406.735.39 1.203 1.015v-5.124h1.735V37.55h-1.625Zm-5.563-5.172q0 1.984.844 2.969.844.984 1.984.984 1.157 0 1.954-.937.812-.938.812-2.875 0-2.125-.828-3.125-.813-1-2.016-1-1.172 0-1.968.969-.782.953-.782 3.015Zm9.188-.016q0-2.875 1.594-4.265 1.343-1.156 3.265-1.156 2.14 0 3.485 1.406 1.359 1.406 1.359 3.875 0 2-.594 3.156-.594 1.14-1.75 1.781-1.14.625-2.5.625-2.187 0-3.531-1.39-1.328-1.407-1.328-4.032Zm1.797 0q0 2 .86 2.985.874.984 2.202.984 1.313 0 2.172-.984.875-1 .875-3.047 0-1.922-.875-2.906-.875-1-2.172-1-1.328 0-2.203 1-.86.984-.86 2.968Zm9.843 5.188V27.175h1.579v1.453q.484-.75 1.296-1.219.813-.468 1.844-.468 1.156 0 1.89.484.735.469 1.048 1.328 1.234-1.812 3.203-1.812 1.547 0 2.375.859.828.86.828 2.625v7.125h-1.75v-6.531q0-1.063-.172-1.516-.172-.469-.625-.75-.437-.281-1.047-.281-1.094 0-1.828.734-.719.719-.719 2.313v6.031h-1.75v-6.734q0-1.172-.437-1.75-.422-.594-1.406-.594-.735 0-1.375.39-.625.391-.907 1.141-.28.75-.28 2.172v5.375h-1.767Zm23.11-3.344 1.812.235q-.422 1.578-1.593 2.468-1.157.875-2.97.875-2.265 0-3.609-1.39-1.328-1.407-1.328-3.938 0-2.625 1.344-4.062 1.344-1.453 3.5-1.453 2.078 0 3.39 1.422 1.329 1.406 1.329 3.984 0 .156-.016.469h-7.734q.094 1.703.969 2.609.875.906 2.171.906.97 0 1.641-.5.688-.515 1.094-1.625Zm-5.781-2.844h5.796q-.109-1.296-.656-1.953-.844-1.015-2.187-1.015-1.203 0-2.032.812-.828.797-.921 2.157Zm13.515 4.61.25 1.562q-.734.157-1.328.157-.953 0-1.484-.297-.516-.313-.735-.797-.218-.5-.218-2.078V28.55h-1.282v-1.375h1.282v-2.563l1.75-1.062v3.625h1.765v1.375h-1.765v6.062q0 .75.093.97.094.202.297.343.219.125.61.125.28 0 .765-.078Zm9.266-1.766 1.812.235q-.421 1.578-1.593 2.468-1.157.875-2.97.875-2.265 0-3.609-1.39-1.328-1.407-1.328-3.938 0-2.625 1.344-4.062 1.344-1.453 3.5-1.453 2.078 0 3.39 1.422 1.329 1.406 1.329 3.984 0 .156-.016.469h-7.734q.094 1.703.969 2.609.875.906 2.171.906.97 0 1.641-.5.688-.515 1.094-1.625Zm-5.781-2.844h5.796q-.109-1.296-.656-1.953-.844-1.015-2.187-1.015-1.203 0-2.032.812-.828.797-.921 2.157Zm9.656 6.188V27.175h1.578v1.578q.61-1.11 1.125-1.453.516-.36 1.125-.36.89 0 1.813.563l-.61 1.64q-.64-.39-1.281-.39-.578 0-1.047.36-.453.343-.656.953-.281.937-.281 2.046v5.438h-1.766Zm16.375 4.203q-1.453-1.828-2.453-4.281-1-2.469-1-5.11 0-2.328.75-4.453.875-2.468 2.703-4.921h1.266q-1.188 2.03-1.563 2.906-.594 1.344-.938 2.812-.421 1.828-.421 3.672 0 4.688 2.922 9.375h-1.266Zm3.64-4.203V23.238h1.766v5.125q1.235-1.422 3.11-1.422 1.14 0 1.984.453.86.453 1.219 1.265.375.797.375 2.313v6.578h-1.75v-6.578q0-1.313-.578-1.906-.579-.61-1.61-.61-.781 0-1.484.407-.688.406-.985 1.109-.28.687-.28 1.906v5.672h-1.766Zm10.016-12.297v-2.015h1.766v2.015h-1.766Zm0 12.297V27.175h1.766V37.55h-1.766Zm3.672.86 1.703.25q.11.796.594 1.156.656.484 1.797.484 1.219 0 1.875-.484.672-.485.906-1.36.14-.547.125-2.265-1.156 1.359-2.875 1.359-2.14 0-3.313-1.547-1.171-1.547-1.171-3.703 0-1.484.53-2.734.548-1.25 1.563-1.938 1.032-.687 2.407-.687 1.828 0 3.03 1.484v-1.25h1.61v8.969q0 2.422-.5 3.422-.484 1.015-1.562 1.593-1.063.594-2.625.594-1.844 0-3-.828-1.14-.828-1.094-2.516Zm1.453-6.235q0 2.047.813 2.984.812.938 2.03.938 1.204 0 2.017-.938.828-.937.828-2.922 0-1.906-.844-2.875-.844-.968-2.031-.968-1.172 0-2 .953-.813.953-.813 2.828Zm9.86 5.375V23.238h1.765v5.125q1.235-1.422 3.11-1.422 1.14 0 1.984.453.86.453 1.219 1.265.375.797.375 2.313v6.578h-1.75v-6.578q0-1.313-.578-1.906-.579-.61-1.61-.61-.781 0-1.484.407-.688.406-.985 1.109-.28.687-.28 1.906v5.672h-1.766Zm17.109-3.344 1.812.235q-.421 1.578-1.593 2.468-1.157.875-2.97.875-2.265 0-3.608-1.39-1.329-1.407-1.329-3.938 0-2.625 1.344-4.062 1.344-1.453 3.5-1.453 2.078 0 3.39 1.422 1.329 1.406 1.329 3.984 0 .156-.016.469h-7.734q.094 1.703.969 2.609.875.906 2.172.906.968 0 1.64-.5.688-.515 1.094-1.625Zm-5.781-2.844h5.797q-.11-1.296-.657-1.953-.843-1.015-2.187-1.015-1.203 0-2.031.812-.829.797-.922 2.157Zm9.656 6.188V27.175h1.578v1.578q.61-1.11 1.125-1.453.516-.36 1.125-.36.89 0 1.813.563l-.61 1.64q-.64-.39-1.281-.39-.578 0-1.047.36-.453.343-.656.953-.281.937-.281 2.046v5.438h-1.766Zm13.031-12.297v-2.015h1.766v2.015h-1.766Zm0 12.297V27.175h1.766V37.55h-1.766Zm3.281-3.094 1.75-.281q.141 1.047.813 1.61.672.546 1.875.546 1.203 0 1.781-.484.594-.5.594-1.156 0-.594-.516-.938-.36-.234-1.797-.594-1.937-.5-2.687-.843-.734-.36-1.125-.985-.39-.64-.39-1.406 0-.688.312-1.281.328-.594.875-.985.406-.296 1.11-.5.718-.218 1.53-.218 1.22 0 2.141.359.922.344 1.36.953.437.594.609 1.594l-1.719.234q-.125-.797-.688-1.234-.562-.453-1.578-.453-1.218 0-1.734.406-.516.39-.516.922 0 .344.22.625.202.281.671.469.266.093 1.547.437 1.875.5 2.61.828.734.313 1.156.922.421.594.421 1.5 0 .875-.515 1.656-.516.782-1.485 1.203-.968.422-2.187.422-2.016 0-3.078-.843-1.063-.844-1.36-2.485Zm18.329 3.094h-1.625V23.238h1.75v5.109q1.125-1.406 2.843-1.406.953 0 1.813.39t1.406 1.094q.547.688.86 1.672.312.984.312 2.11 0 2.671-1.313 4.124-1.312 1.453-3.156 1.453t-2.89-1.53v1.296Zm-.016-5.266q0 1.86.5 2.703.844 1.344 2.25 1.344 1.156 0 1.984-1 .844-1 .844-2.984 0-2.031-.813-2.985-.796-.968-1.937-.968-1.156 0-2 1-.828 1-.828 2.89Zm16.5 1.922 1.812.235q-.421 1.578-1.593 2.468-1.157.875-2.97.875-2.265 0-3.608-1.39-1.329-1.407-1.329-3.938 0-2.625 1.344-4.062 1.344-1.453 3.5-1.453 2.078 0 3.39 1.422 1.329 1.406 1.329 3.984 0 .156-.016.469h-7.734q.094 1.703.969 2.609.875.906 2.172.906.968 0 1.64-.5.688-.515 1.094-1.625Zm-5.781-2.844h5.797q-.11-1.296-.657-1.953-.843-1.015-2.187-1.015-1.203 0-2.031.812-.829.797-.922 2.157Zm13.515 4.61.25 1.562q-.734.157-1.328.157-.953 0-1.484-.297-.516-.313-.735-.797-.218-.5-.218-2.078V28.55h-1.282v-1.375h1.282v-2.563l1.75-1.062v3.625h1.765v1.375h-1.765v6.062q0 .75.093.97.094.202.297.343.219.125.61.125.28 0 .765-.078Zm6 0 .25 1.562q-.734.157-1.328.157-.953 0-1.484-.297-.516-.313-.735-.797-.218-.5-.218-2.078V28.55h-1.282v-1.375h1.282v-2.563l1.75-1.062v3.625h1.765v1.375h-1.765v6.062q0 .75.093.97.094.202.297.343.219.125.61.125.28 0 .765-.078Zm9.266-1.766 1.812.235q-.421 1.578-1.593 2.468-1.157.875-2.97.875-2.265 0-3.608-1.39-1.329-1.407-1.329-3.938 0-2.625 1.344-4.062 1.344-1.453 3.5-1.453 2.078 0 3.39 1.422 1.329 1.406 1.329 3.984 0 .156-.016.469h-7.734q.094 1.703.969 2.609.875.906 2.172.906.968 0 1.64-.5.688-.515 1.094-1.625Zm-5.781-2.844h5.797q-.11-1.296-.657-1.953-.844-1.015-2.187-1.015-1.203 0-2.031.812-.829.797-.922 2.157Zm9.656 6.188V27.175h1.578v1.578q.61-1.11 1.125-1.453.516-.36 1.125-.36.89 0 1.813.563l-.61 1.64q-.64-.39-1.281-.39-.578 0-1.047.36-.453.343-.656.953-.281.937-.281 2.046v5.438h-1.766Zm8.172 4.203h-1.25q2.906-4.687 2.906-9.375 0-1.844-.406-3.64-.344-1.47-.938-2.813-.375-.89-1.562-2.938h1.25q1.844 2.454 2.719 4.922.75 2.125.75 4.453 0 2.641-1.016 5.11-1 2.453-2.453 4.281Z"/></svg>