<svg xmlns="http://www.w3.org/2000/svg" width="1000" height="1000" fill="none">
    <circle cx="500" cy="500" r="500" fill="#fff" />
    <path fill="#000"
        d="M651.4 786.6c-29.867 0-52.533-9.6-68-28.8-14.933-19.733-25.067-56.267-30.4-109.6-3.2-27.733-6.4-63.733-9.6-108a5415.22 5415.22 0 0 0-112.8 35.2l-27.2 75.2c-5.333 14.4-9.067 24.8-11.2 31.2-2.133 5.867-6.133 14.933-12 27.2-5.333 12.267-10.133 21.333-14.4 27.2-3.733 5.333-9.333 12.267-16.8 20.8-6.933 8.533-14.133 14.667-21.6 18.4-19.2 9.6-39.733 14.4-61.6 14.4-21.867 0-39.733-7.733-53.6-23.2-13.333-16-20-35.467-20-58.4 0-6.4.533-13.067 1.6-20 6.933-51.2 59.467-97.867 157.6-140 27.733-70.933 73.867-190.4 138.4-358.4 17.067-9.6 38.667-14.4 64.8-14.4h36c8 0 17.867 1.6 29.6 4.8.533 25.067 12.8 180.533 36.8 466.4 2.133 24 5.067 39.733 8.8 47.2 3.733 6.933 10.133 10.4 19.2 10.4 14.933 0 34.667-10.133 59.2-30.4 25.067-20.267 47.467-45.6 67.2-76l22.4 54.4-19.2 25.6c-56 72.533-110.4 108.8-163.2 108.8Zm-127.2-472L454.6 509c37.333-12.8 65.067-22.133 83.2-28l-13.6-166.4ZM323.4 617.8c-49.6 25.067-74.4 49.6-74.4 73.6 0 17.067 6.4 25.6 19.2 25.6 9.6 0 17.333-6.933 23.2-20.8 6.933-14.933 17.6-41.067 32-78.4Z" />
</svg>
